<?xml version="1.0" standalone="no"?>
<!DOCTYPE svg PUBLIC "-//W3C//DTD SVG 1.1//EN" "http://www.w3.org/Graphics/SVG/1.1/DTD/svg11.dtd" >
<svg xmlns="http://www.w3.org/2000/svg">
<metadata></metadata>
<defs>
<font id="fs_elliot_proitalic" horiz-adv-x="1179" >
<font-face units-per-em="2048" ascent="1536" descent="-512" />
<missing-glyph horiz-adv-x="491" />
<glyph unicode="&#xfb01;" horiz-adv-x="1187" d="M119 866l22 129h205l31 170q26 140 129 220.5t256 80.5q140 0 334 -82l-56 -120q-156 71 -266 71q-91 0 -155.5 -49.5t-79.5 -132.5l-29 -158h604l-174 -995h-164l154 866h-443l-151 -866h-164l152 866h-205z" />
<glyph unicode="&#xfb02;" horiz-adv-x="1286" d="M119 866l22 129h205l31 170q27 141 129 221t262 80q149 0 418 -77l-203 -1139q-6 -27 -6 -51q0 -41 27.5 -65.5t72.5 -24.5q21 0 84 10l10 -129q-92 -15 -143 -15q-98 0 -157.5 54t-59.5 145q0 34 6 68l189 1050q-142 43 -236 43q-92 0 -154 -49t-77 -133l-29 -158h281 l-23 -129h-281l-151 -866h-164l152 866h-205z" />
<glyph unicode="&#xfb03;" horiz-adv-x="1826" d="M119 866l22 129h205l39 209q20 119 105.5 190.5t209.5 71.5q101 0 222 -47l-50 -123q-88 37 -153 37q-68 0 -116 -41t-58 -108l-35 -189h475l29 170q26 140 129 220.5t256 80.5q140 0 334 -82l-56 -120q-156 71 -266 71q-91 0 -155.5 -49.5t-79.5 -132.5l-29 -158h606 l-176 -995h-164l152 866h-441l-151 -866h-164l152 866h-474l-151 -866h-164l152 866h-205z" />
<glyph unicode="&#xfb04;" horiz-adv-x="1925" d="M119 866l22 129h205l39 209q20 119 105.5 190.5t209.5 71.5q101 0 222 -47l-50 -123q-88 37 -153 37q-68 0 -116 -41t-58 -108l-35 -189h475l29 170q26 141 129 221t262 80q149 0 418 -77l-203 -1139q-6 -27 -6 -51q0 -41 28 -65.5t74 -24.5q20 0 82 10l10 -129 q-88 -15 -141 -15q-99 0 -159 54.5t-60 144.5q0 34 6 68l188 1050q-142 43 -235 43q-92 0 -154 -49t-77 -133l-29 -158h280l-22 -129h-281l-151 -866h-164l152 866h-474l-151 -866h-164l152 866h-205z" />
<glyph horiz-adv-x="0" />
<glyph horiz-adv-x="0" />
<glyph horiz-adv-x="682" />
<glyph unicode="&#xd;" horiz-adv-x="491" />
<glyph unicode=" "  horiz-adv-x="491" />
<glyph unicode="&#x09;" horiz-adv-x="491" />
<glyph unicode="&#xa0;" horiz-adv-x="491" />
<glyph unicode="!" horiz-adv-x="538" d="M82 80q0 54 38 91.5t93 37.5q43 0 70.5 -27t27.5 -71q0 -54 -38 -91.5t-93 -37.5q-43 0 -70.5 27t-27.5 71zM184 428l152 948h166l-180 -948h-138z" />
<glyph unicode="&#x22;" horiz-adv-x="827" d="M231 924l66 452h156l-97 -452h-125zM618 924l66 452h156l-97 -452h-125z" />
<glyph unicode="#" horiz-adv-x="1335" d="M8 367l23 127h274l144 389h-250l22 127h275l137 379l125 -21l-133 -358h387l139 379l123 -21l-131 -358h250l-23 -127h-274l-144 -389h250l-22 -127h-275l-139 -379l-123 20l131 359h-385l-139 -379l-123 20l131 359h-250zM436 494h385l144 389h-387z" />
<glyph unicode="$" d="M115 182l57 127q206 -102 385 -102q120 0 194 59t74 154q0 52 -31 91t-80.5 64.5t-109.5 48.5t-119.5 50t-109 61t-80.5 90.5t-31 130.5q0 147 110 239t288 103l59 340h139l-59 -344q157 -19 307 -90l-57 -125q-193 90 -363 90q-114 0 -186 -58.5t-72 -145.5 q0 -50 31 -88t80.5 -62.5t109.5 -46.5t120.5 -49.5t110 -62.5t80.5 -93t31 -135q0 -154 -112.5 -247.5t-296.5 -104.5l-60 -338h-139l61 344q-168 18 -331 100z" />
<glyph unicode="%" horiz-adv-x="1769" d="M176 954q0 193 112.5 320t286.5 127q133 0 215 -80t82 -211q0 -193 -112.5 -319.5t-286.5 -126.5q-134 0 -215.5 80t-81.5 210zM242 37l1274 1380l77 -78l-1274 -1380zM301 965q0 -90 50 -145.5t130 -55.5q115 0 191 96.5t76 239.5q0 91 -49.5 145.5t-131.5 54.5 q-114 0 -190 -96t-76 -239zM965 266q0 193 112.5 320t286.5 127q132 0 213.5 -80.5t81.5 -210.5q0 -193 -112.5 -320t-286.5 -127q-133 0 -214 80t-81 211zM1090 276q0 -90 49 -145t129 -55q115 0 190.5 96.5t75.5 239.5q0 91 -49 145.5t-131 54.5q-114 0 -189 -96.5 t-75 -239.5z" />
<glyph unicode="&#x26;" horiz-adv-x="1280" d="M57 317q0 138 102.5 260t286.5 201q-118 149 -118 279q0 151 106 247.5t273 96.5q132 0 212 -69.5t80 -186.5q0 -225 -358 -397l279 -377q97 141 124 297h138q-43 -221 -185 -406l193 -262h-174l-127 174q-102 -96 -217.5 -147.5t-225.5 -51.5q-176 0 -282.5 95 t-106.5 247zM213 342q0 -107 70.5 -173.5t189.5 -66.5q83 0 174 45t168 127l-299 410q-143 -63 -223 -153t-80 -189zM477 1063q0 -102 98 -227q279 133 279 288q0 69 -43.5 109.5t-118.5 40.5q-93 0 -154 -60t-61 -151z" />
<glyph unicode="'" horiz-adv-x="440" d="M231 924l66 452h156l-97 -452h-125z" />
<glyph unicode="(" horiz-adv-x="690" d="M166 420q4 306 134.5 584.5t367.5 494.5l106 -84q-213 -196 -332 -454t-125 -537q-12 -377 177 -660l-121 -75q-216 313 -207 731z" />
<glyph unicode=")" horiz-adv-x="690" d="M-49 -227q214 196 333.5 455.5t125.5 537.5q9 378 -177 657l119 76q218 -316 209 -731q-6 -307 -136 -584.5t-368 -494.5z" />
<glyph unicode="*" horiz-adv-x="1007" d="M213 760l276 198l-276 199l68 94l272 -198l106 321l109 -37l-102 -319h335v-117h-335l102 -319l-109 -37l-106 321l-272 -198z" />
<glyph unicode="+" d="M100 520v139h435v435h139v-435h434v-139h-434v-434h-139v434h-435z" />
<glyph unicode="," horiz-adv-x="505" d="M-39 -258q170 107 199 248q-41 -2 -67.5 23t-26.5 67q0 55 37.5 92t93.5 37q47 0 74.5 -33.5t27.5 -91.5q0 -116 -78.5 -228.5t-212.5 -183.5z" />
<glyph unicode="-" horiz-adv-x="655" d="M45 446l23 127h548l-24 -127h-547z" />
<glyph unicode="." horiz-adv-x="505" d="M66 80q0 54 38 91.5t93 37.5q43 0 70.5 -27t27.5 -71q0 -54 -38 -91.5t-93 -37.5q-43 0 -70.5 27t-27.5 71z" />
<glyph unicode="/" horiz-adv-x="786" d="M-117 -246l918 1719l121 -48l-918 -1718z" />
<glyph unicode="0" d="M102 481q0 257 80 467.5t223.5 331.5t321.5 121q201 0 309.5 -134t108.5 -372q0 -257 -80.5 -467.5t-224 -331.5t-320.5 -121q-201 0 -309.5 134t-108.5 372zM258 492q0 -181 71 -280t206 -99q128 0 232.5 103t163 279.5t58.5 389.5q0 181 -70.5 280t-205.5 99 q-129 0 -233.5 -103t-163 -279.5t-58.5 -389.5z" />
<glyph unicode="1" d="M305 1122l486 254h143l-242 -1376h-164l213 1208l-385 -204z" />
<glyph unicode="2" d="M27 0l18 113l631 530q231 193 231 363q0 118 -70 187t-194 69q-140 0 -336 -105l-51 123q233 121 432 121q176 0 279.5 -101t103.5 -270q0 -234 -270 -457l-525 -440h658l-25 -133h-882z" />
<glyph unicode="3" d="M41 96l65 121q205 -108 379 -108q138 0 231 81.5t93 204.5q0 114 -84 181t-229 67h-74l20 123h86q163 0 268 79t105 202q0 98 -69.5 159.5t-178.5 61.5q-152 0 -338 -70l-41 123q221 80 420 80q167 0 269 -91.5t102 -240.5q0 -136 -90 -235t-230 -132q109 -29 170.5 -112 t61.5 -201q0 -115 -63.5 -210t-174 -149.5t-243.5 -54.5q-225 0 -455 121z" />
<glyph unicode="4" d="M35 326l20 118l832 932h151l-161 -923h210l-22 -127h-211l-57 -326h-152l57 326h-667zM217 453h508l125 708z" />
<glyph unicode="5" d="M59 113l76 118q174 -118 344 -118q157 0 262 92t105 229q0 126 -89 198.5t-247 72.5q-115 0 -262 -21l123 692h757l-24 -133h-610l-76 -430q80 12 157 12q198 0 315.5 -103t117.5 -278q0 -131 -69 -238.5t-190.5 -169t-269.5 -61.5q-210 0 -420 138z" />
<glyph unicode="6" d="M135 461q0 264 89 479.5t245 338t348 122.5q177 0 348 -98l-67 -117q-148 84 -287 84q-187 0 -327 -166t-175 -436q67 101 168 156t225 55q169 0 275 -106t106 -279q-2 -217 -152 -368t-366 -151q-203 0 -316.5 128t-113.5 358zM291 414q0 -137 78.5 -222.5t205.5 -85.5 q147 0 249 107t102 262q0 127 -73.5 202t-195.5 75q-152 0 -258 -100t-108 -238z" />
<glyph unicode="7" d="M195 0l755 1243h-686l25 133h868l-20 -119l-764 -1257h-178z" />
<glyph unicode="8" d="M80 322q0 140 98 241t279 148q-103 30 -164.5 111.5t-61.5 183.5q0 171 138.5 283t353.5 112q189 0 300.5 -89.5t111.5 -240.5q0 -135 -90 -234t-250 -139q121 -40 186.5 -121t65.5 -190q0 -178 -149 -295t-376 -117q-204 0 -323 93.5t-119 253.5zM244 338 q0 -107 79 -171.5t212 -64.5q150 0 250 81.5t100 203.5q0 96 -69.5 161.5t-201.5 94.5q-173 -26 -270.5 -107t-99.5 -198zM389 1006q0 -92 64 -154.5t184 -85.5q158 20 248 97t90 192q0 99 -71.5 159t-192.5 60q-138 0 -230 -77t-92 -191z" />
<glyph unicode="9" d="M88 74l68 116q145 -84 284 -84q187 0 327 166.5t175 436.5q-65 -101 -165.5 -156t-225.5 -55q-169 0 -275 106t-106 279q0 106 40.5 202.5t109.5 165.5t164.5 109.5t201.5 40.5q204 0 318 -128t114 -358q0 -264 -89 -479.5t-245 -338t-348 -122.5q-178 0 -348 99z M326 901q0 -127 74 -201.5t196 -74.5q151 0 258 100t107 238q2 137 -77 222t-206 85q-148 0 -250 -107t-102 -262z" />
<glyph unicode=":" horiz-adv-x="538" d="M82 80q0 54 38 91.5t93 37.5q43 0 70.5 -27t27.5 -71q0 -54 -38 -91.5t-93 -37.5q-43 0 -70.5 27t-27.5 71zM227 885q0 54 38 91.5t93 37.5q43 0 71 -27.5t28 -71.5q0 -54 -38 -91.5t-93 -37.5q-43 0 -71 27.5t-28 71.5z" />
<glyph unicode=";" horiz-adv-x="538" d="M-23 -258q170 107 199 248q-41 -2 -67.5 23t-26.5 67q0 55 37.5 92t93.5 37q47 0 74.5 -33.5t27.5 -91.5q0 -117 -78 -229t-212 -183zM227 885q0 54 38 91.5t93 37.5q43 0 71 -27.5t28 -71.5q0 -54 -38 -91.5t-93 -37.5q-43 0 -71 27.5t-28 71.5z" />
<glyph unicode="&#x3c;" d="M100 520v139l965 437l57 -131l-831 -375l831 -375l-57 -131z" />
<glyph unicode="=" d="M100 299v141h1008v-141h-1008zM100 739v142h1008v-142h-1008z" />
<glyph unicode="&#x3e;" d="M86 215l834 375l-834 375l57 131l965 -437v-139l-965 -436z" />
<glyph unicode="?" horiz-adv-x="942" d="M195 1288q186 113 391 113q160 0 257 -91.5t97 -240.5q0 -65 -22.5 -123t-59 -103t-81 -86t-91 -78t-86.5 -72.5t-69.5 -76t-38.5 -81.5l-5 -21h-139l6 37q8 51 35.5 99t64.5 87t80.5 76.5t85.5 74t76 73.5t55 81.5t21 90.5q0 97 -60.5 156t-158.5 59q-140 0 -299 -95z M264 74q0 52 36 88.5t89 36.5q41 0 66.5 -26t25.5 -69q0 -53 -35.5 -87.5t-89.5 -34.5q-42 0 -67 25t-25 67z" />
<glyph unicode="@" horiz-adv-x="1957" d="M88 330q0 230 78.5 431t215 344t329 225.5t413.5 82.5q345 0 550.5 -191t205.5 -507q0 -182 -61.5 -334.5t-169.5 -241t-240 -88.5q-88 0 -147.5 44t-77.5 112q-56 -74 -137 -115t-175 -41q-148 0 -235.5 92.5t-87.5 247.5q0 157 56.5 283.5t158 198t227.5 71.5 q88 0 156.5 -43t97.5 -119l45 142h137l-106 -600q-4 -24 -4 -41q0 -52 33 -81.5t86 -29.5q84 0 154.5 69.5t111.5 190t41 264.5q0 271 -170.5 431.5t-460.5 160.5q-188 0 -352.5 -71.5t-281 -196.5t-184 -301t-67.5 -377q0 -292 179 -463.5t485 -171.5q262 0 506 131 l49 -110q-274 -146 -565 -146q-359 0 -576 205.5t-217 542.5zM715 410q0 -103 57 -166.5t148 -63.5q97 0 168 63.5t90 168.5l24 145q6 27 6 61q0 88 -53 142.5t-139 54.5q-130 0 -215.5 -115.5t-85.5 -289.5z" />
<glyph unicode="A" horiz-adv-x="1357" d="M-51 0l807 1376h157l316 -1376h-162l-84 377h-641l-215 -377h-178zM414 506h544l-151 684z" />
<glyph unicode="B" horiz-adv-x="1318" d="M117 0l241 1376h523q171 0 266.5 -85t95.5 -232q0 -126 -66 -220t-182 -132q84 -28 133.5 -107.5t49.5 -189.5q0 -177 -131 -293.5t-330 -116.5h-600zM303 127h395q138 0 226 82.5t88 210.5q0 104 -62 165.5t-178 61.5h-379zM414 762h372q129 0 210 76.5t81 199.5 q0 97 -61.5 154t-169.5 57h-346z" />
<glyph unicode="C" horiz-adv-x="1306" d="M125 530q0 247 96 445.5t272.5 312t401.5 113.5q240 0 453 -146l-82 -118q-178 125 -369 125q-177 0 -314.5 -93t-211.5 -255t-74 -365q0 -195 121.5 -314.5t314.5 -119.5q195 0 377 110l55 -119q-210 -131 -465 -131q-254 0 -414.5 153t-160.5 402z" />
<glyph unicode="D" horiz-adv-x="1439" d="M117 0l241 1376h416q284 0 445 -148.5t161 -408.5q0 -180 -58 -333t-160.5 -259.5t-249 -166.5t-318.5 -60h-477zM309 133h281q134 0 249 49.5t196 137.5t127 213.5t46 273.5q0 205 -123 320.5t-344 115.5h-237z" />
<glyph unicode="E" horiz-adv-x="1208" d="M117 0l241 1376h865l-25 -131h-694l-82 -477h629l-23 -127h-629l-90 -510h727l-22 -131h-897z" />
<glyph unicode="F" horiz-adv-x="1175" d="M117 0l241 1376h865l-25 -133h-694l-90 -524h628l-24 -133h-629l-102 -586h-170z" />
<glyph unicode="G" horiz-adv-x="1406" d="M125 532q0 185 57.5 346t159 276t247.5 181t316 66q237 0 469 -131l-74 -119q-206 117 -393 117q-182 0 -323 -93t-217 -256.5t-76 -369.5q0 -198 128 -319t337 -121q156 0 293 57l75 422h-329l22 127h488l-115 -641q-228 -99 -457 -99q-275 0 -441.5 153t-166.5 404z " />
<glyph unicode="H" horiz-adv-x="1521" d="M117 0l241 1376h170l-106 -604h774l104 604h170l-241 -1376h-170l112 637h-774l-110 -637h-170z" />
<glyph unicode="I" horiz-adv-x="577" d="M117 0l241 1376h170l-241 -1376h-170z" />
<glyph unicode="J" horiz-adv-x="909" d="M-27 35l50 129q139 -49 225 -49q102 0 171.5 61.5t88.5 163.5l180 1036h170l-184 -1057q-28 -157 -138.5 -250.5t-269.5 -93.5q-133 0 -293 60z" />
<glyph unicode="K" horiz-adv-x="1341" d="M117 0l241 1376h164l-123 -702l813 702h205l-737 -639l520 -737h-190l-453 641l-192 -164l-82 -477h-166z" />
<glyph unicode="L" horiz-adv-x="1077" d="M117 0l241 1376h170l-219 -1243h652l-25 -133h-819z" />
<glyph unicode="M" horiz-adv-x="1701" d="M117 0l241 1376h158l356 -688l603 688h176l-242 -1376h-158l203 1145l-557 -635h-94l-328 629l-201 -1139h-157z" />
<glyph unicode="N" horiz-adv-x="1521" d="M117 0l241 1376h160l594 -1134l201 1134h157l-241 -1376h-160l-594 1135l-201 -1135h-157z" />
<glyph unicode="O" horiz-adv-x="1521" d="M125 530q0 249 99 448t274.5 311t394.5 112q254 0 411.5 -151.5t157.5 -403.5q0 -186 -58 -348t-159 -277t-243.5 -180.5t-305.5 -65.5q-255 0 -413 151.5t-158 403.5zM297 545q0 -197 114.5 -314.5t299.5 -117.5q164 0 296.5 92.5t207.5 257t75 368.5q0 198 -114 315.5 t-299 117.5q-164 0 -296.5 -93t-208 -257.5t-75.5 -368.5z" />
<glyph unicode="P" horiz-adv-x="1253" d="M117 0l241 1376h482q186 0 296.5 -105t110.5 -280q0 -207 -147 -342t-371 -135h-358l-90 -514h-164zM393 647h324q161 0 261.5 93t100.5 241q0 121 -75.5 191.5t-204.5 70.5h-301z" />
<glyph unicode="Q" horiz-adv-x="1521" d="M125 530q0 249 99 448t274.5 311t394.5 112q254 0 411.5 -151.5t157.5 -403.5q0 -259 -106.5 -462.5t-290.5 -307.5l299 -248l-90 -102l-344 290q-109 -41 -234 -41q-255 0 -413 151.5t-158 403.5zM297 545q0 -197 114.5 -314.5t299.5 -117.5q164 0 296.5 92.5t207.5 257 t75 368.5q0 198 -114 315.5t-299 117.5q-164 0 -296.5 -93t-208 -257.5t-75.5 -368.5z" />
<glyph unicode="R" horiz-adv-x="1318" d="M117 0l241 1376h508q177 0 281 -100t104 -268q0 -178 -113 -301.5t-294 -145.5l291 -561h-172l-281 547h-305l-96 -547h-164zM399 680h344q152 0 247 88.5t95 228.5q0 114 -69.5 180t-190.5 66h-327z" />
<glyph unicode="S" horiz-adv-x="1171" d="M37 100l55 131q239 -118 455 -118q146 0 236.5 70t90.5 184q0 50 -22.5 90.5t-61 69t-88.5 53t-105 46.5t-109.5 45.5t-104.5 54.5t-88.5 68.5t-61 93t-22.5 122.5q0 168 135.5 279.5t341.5 111.5q243 0 486 -113l-58 -129q-231 105 -422 105q-140 0 -229.5 -70 t-89.5 -176q0 -49 22.5 -88.5t61 -67t88.5 -51t105 -45.5t109.5 -45t104.5 -54.5t88.5 -70t61 -95.5t22.5 -126q0 -178 -134.5 -289t-350.5 -111q-123 0 -258 31.5t-258 93.5z" />
<glyph unicode="T" horiz-adv-x="1208" d="M184 1243l23 133h1102l-25 -133h-465l-217 -1243h-170l217 1243h-465z" />
<glyph unicode="U" horiz-adv-x="1521" d="M186 428q0 53 9 115l147 833h170l-147 -833q-9 -53 -9 -99q0 -150 97 -240.5t256 -90.5q177 0 300.5 107t155.5 290l152 866h170l-156 -878q-41 -242 -212.5 -382.5t-420.5 -140.5q-227 0 -369.5 126t-142.5 327z" />
<glyph unicode="V" horiz-adv-x="1357" d="M195 1376h167l259 -1171l671 1171h183l-805 -1376h-158z" />
<glyph unicode="W" horiz-adv-x="2029" d="M219 1376h162l156 -1163l548 1163h156l160 -1163l549 1163h172l-672 -1376h-160l-160 1163l-548 -1163h-162z" />
<glyph unicode="X" horiz-adv-x="1357" d="M-29 0l643 713l-376 663h182l313 -563l502 563h199l-615 -680l398 -696h-185l-332 596l-530 -596h-199z" />
<glyph unicode="Y" horiz-adv-x="1210" d="M160 1376h178l305 -635l485 635h195l-618 -794l-103 -582h-170l105 594z" />
<glyph unicode="Z" horiz-adv-x="1269" d="M16 0l19 102l1009 1141h-786l25 133h1011l-18 -102l-1010 -1141h836l-25 -133h-1061z" />
<glyph unicode="[" horiz-adv-x="690" d="M80 -274l303 1728h401l-22 -135h-250l-256 -1458h250l-25 -135h-401z" />
<glyph unicode="\" horiz-adv-x="786" d="M184 1438l135 22l314 -1718l-137 -23z" />
<glyph unicode="]" horiz-adv-x="690" d="M-59 -274l22 135h250l256 1458h-250l25 135h401l-303 -1728h-401z" />
<glyph unicode="^" d="M166 442l426 934h139l426 -934l-131 -51l-364 797l-363 -797z" />
<glyph unicode="_" horiz-adv-x="983" d="M-145 -326l22 127h983l-22 -127h-983z" />
<glyph unicode="`" horiz-adv-x="491" d="M102 1356l76 104l332 -239l-66 -93z" />
<glyph unicode="a" horiz-adv-x="1083" d="M53 258q0 160 128 253t347 93q114 0 236 -29l14 87q6 54 6 57q0 77 -57.5 126.5t-155.5 49.5q-138 0 -315 -57l-29 118q198 64 375 64q154 0 247 -80t93 -209q0 -24 -8 -74l-80 -456q-4 -20 -4 -33q0 -30 21 -48t55 -18q21 0 49 4l6 -120q-64 -11 -107 -11q-74 0 -121 43 t-48 113q-64 -76 -152.5 -116t-187.5 -40q-137 0 -224.5 79.5t-87.5 203.5zM213 276q0 -83 54 -132.5t147 -49.5q119 0 206 79t109 206l19 98q-116 25 -213 25q-147 0 -234.5 -62t-87.5 -164z" />
<glyph unicode="b" horiz-adv-x="1161" d="M74 0l254 1442h164l-105 -586q61 79 145 121.5t181 42.5q166 0 266 -108.5t100 -288.5q0 -182 -66 -330.5t-184 -233t-264 -84.5q-107 0 -188 53.5t-115 147.5l-51 -176h-137zM303 358q0 -108 66.5 -176.5t171.5 -68.5q161 0 266.5 140t105.5 351q0 124 -71 201.5 t-185 77.5q-117 0 -206.5 -79.5t-112.5 -205.5l-29 -164q-6 -40 -6 -76z" />
<glyph unicode="c" horiz-adv-x="991" d="M82 389q0 177 73.5 321.5t205 227t294.5 82.5q183 0 336 -105l-80 -114q-122 84 -254 84q-176 0 -291.5 -138.5t-115.5 -343.5q0 -132 81 -213t210 -81q135 0 268 81l53 -116q-178 -99 -352 -99q-188 0 -308 115t-120 299z" />
<glyph unicode="d" horiz-adv-x="1161" d="M82 373q0 182 66.5 330t185 232.5t264.5 84.5q105 0 185 -52.5t112 -142.5l109 617h163l-254 -1442h-125l5 150q-66 -84 -155 -129.5t-187 -45.5q-167 0 -268 108.5t-101 289.5zM250 391q0 -125 70 -201.5t184 -76.5q118 0 207.5 78.5t111.5 203.5l29 166q8 54 8 76 q0 108 -67 177t-172 69q-161 0 -266 -140.5t-105 -351.5z" />
<glyph unicode="e" horiz-adv-x="1083" d="M82 389q0 133 42 250t115 200.5t176 132t220 48.5q169 0 276 -111t107 -286q0 -80 -21 -166h-749q-3 -24 -3 -50q0 -16 1 -32q6 -123 88.5 -199t210.5 -76q142 0 291 90l53 -110q-187 -105 -369 -105q-195 0 -316.5 114t-121.5 300zM262 561h598q4 25 4 76 q-3 117 -69.5 187.5t-173.5 70.5q-129 0 -228 -92.5t-131 -241.5z" />
<glyph unicode="f" horiz-adv-x="755" d="M119 866l22 129h205l39 209q20 119 105.5 190.5t209.5 71.5q101 0 222 -47l-50 -123q-88 37 -153 37q-68 0 -116 -41t-58 -108l-35 -189h281l-23 -129h-281l-151 -866h-164l152 866h-205z" />
<glyph unicode="g" horiz-adv-x="1161" d="M4 -354l55 123q187 -88 336 -88q138 0 231.5 71t114.5 199l33 186q-61 -77 -144 -119.5t-179 -42.5q-167 0 -268 108.5t-101 289.5q0 182 66.5 330t185 232.5t264.5 84.5q106 0 186.5 -53.5t114.5 -147.5l51 176h137l-182 -1046q-34 -188 -168.5 -294t-335.5 -106 q-199 0 -397 97zM250 391q0 -125 70 -201.5t184 -76.5q119 0 208 77.5t111 204.5l29 166q8 54 8 76q0 108 -67 177t-172 69q-161 0 -266 -140.5t-105 -351.5z" />
<glyph unicode="h" horiz-adv-x="1161" d="M74 0l254 1442h164l-107 -602q60 84 150.5 132t189.5 48q143 0 232.5 -85t89.5 -220q0 -45 -11 -109l-106 -606h-164l106 596q9 65 9 84q0 93 -59 148t-156 55q-121 0 -212 -85t-114 -220l-102 -578h-164z" />
<glyph unicode="i" horiz-adv-x="485" d="M74 0l174 995h164l-174 -995h-164zM270 1282q0 54 35.5 89.5t89.5 35.5q41 0 66.5 -25.5t25.5 -66.5q0 -53 -35.5 -89t-89.5 -36q-41 0 -66.5 26t-25.5 66z" />
<glyph unicode="j" horiz-adv-x="501" d="M-317 -408l49 125q94 -34 153 -34q67 0 114.5 40.5t59.5 108.5l205 1163h164l-209 -1183q-20 -119 -105.5 -191t-209.5 -72q-94 0 -221 43zM287 1282q0 54 35.5 89.5t89.5 35.5q41 0 66.5 -25.5t25.5 -66.5q0 -53 -35.5 -89t-89.5 -36q-41 0 -66.5 26t-25.5 66z" />
<glyph unicode="k" horiz-adv-x="1026" d="M74 0l254 1442h157l-163 -926l542 479h195l-527 -465l361 -530h-180l-297 438l-127 -110l-58 -328h-157z" />
<glyph unicode="l" horiz-adv-x="583" d="M109 174q0 34 6 68l213 1200h164l-211 -1192q-7 -32 -7 -51q0 -41 28 -65.5t73 -24.5q21 0 84 10l8 -129q-88 -15 -141 -15q-98 0 -157.5 54t-59.5 145z" />
<glyph unicode="m" horiz-adv-x="1787" d="M74 0l174 995h125l-8 -164q63 91 153 140t191 49q112 0 189.5 -58t96.5 -155q65 99 165 156t210 57q134 0 219.5 -81t85.5 -210q0 -54 -8 -98l-111 -631h-163l110 621q6 41 6 75q0 86 -54 136.5t-144 50.5q-115 0 -201 -82t-109 -211l-104 -590h-164l111 621q6 41 6 75 q0 85 -55 136t-144 51q-115 0 -201.5 -82.5t-109.5 -210.5l-102 -590h-164z" />
<glyph unicode="n" horiz-adv-x="1161" d="M74 0l174 995h125l-8 -172q62 91 157.5 144t202.5 53q143 0 232.5 -85t89.5 -220q0 -45 -11 -109l-106 -606h-164l106 596q9 65 9 84q0 93 -59 148t-156 55q-121 0 -212 -85t-114 -220l-102 -578h-164z" />
<glyph unicode="o" horiz-adv-x="1161" d="M82 389q0 179 73 323t204.5 226t295.5 82q189 0 306.5 -114.5t117.5 -299.5q0 -179 -73 -323t-203.5 -226t-294.5 -82q-191 0 -308.5 114t-117.5 300zM250 401q0 -132 74.5 -213.5t197.5 -81.5q168 0 279.5 139t111.5 349q0 132 -75.5 213.5t-198.5 81.5 q-168 0 -278.5 -139t-110.5 -349z" />
<glyph unicode="p" horiz-adv-x="1161" d="M-2 -426l250 1421h125l-4 -149q66 83 155.5 128.5t188.5 45.5q166 0 266 -108.5t100 -288.5q0 -182 -66 -330.5t-184 -233t-264 -84.5q-106 0 -186.5 52t-112.5 143l-104 -596h-164zM303 358q0 -108 66.5 -176.5t171.5 -68.5q161 0 266.5 140t105.5 351q0 124 -71 201.5 t-185 77.5q-117 0 -206.5 -79.5t-112.5 -205.5l-29 -164q-6 -40 -6 -76z" />
<glyph unicode="q" horiz-adv-x="1161" d="M82 373q0 182 66.5 330t185 232.5t264.5 84.5q106 0 186.5 -53.5t114.5 -147.5l51 176h137l-249 -1421h-164l100 563q-61 -77 -144 -119.5t-179 -42.5q-167 0 -268 108.5t-101 289.5zM250 391q0 -125 70 -201.5t184 -76.5q119 0 208 77.5t111 204.5l29 166q8 54 8 76 q0 108 -67 177t-172 69q-161 0 -266 -140.5t-105 -351.5z" />
<glyph unicode="r" horiz-adv-x="784" d="M74 0l174 995h125l-8 -168q57 89 140 137t183 48q76 0 143 -27l-43 -131q-59 23 -131 23q-122 0 -209 -83.5t-112 -222.5l-98 -571h-164z" />
<glyph unicode="s" horiz-adv-x="903" d="M16 68l56 120q190 -86 325 -86q94 0 151.5 48t57.5 122q0 43 -25.5 75t-66.5 53.5t-90.5 40.5t-99.5 42t-91 52t-66.5 76.5t-25.5 109.5q0 129 101.5 214t257.5 85q171 0 352 -82l-55 -121q-164 74 -293 74q-90 0 -145.5 -44.5t-55.5 -115.5q0 -41 25.5 -72.5t66.5 -52 t90 -39t98.5 -42t90.5 -53t66.5 -78.5t25.5 -113q0 -134 -101.5 -220t-263.5 -86q-188 0 -385 93z" />
<glyph unicode="t" horiz-adv-x="821" d="M119 866l22 129h205l53 295h162l-51 -295h313l-22 -129h-314l-100 -567q-6 -30 -6 -59q0 -59 39.5 -95t103.5 -36q51 0 133 14l13 -129q-111 -19 -193 -19q-117 0 -189.5 66.5t-72.5 175.5q0 37 6 74l103 575h-205z" />
<glyph unicode="u" horiz-adv-x="1161" d="M115 281q0 50 10 108l106 606h164l-104 -596q-8 -39 -8 -86q0 -92 58 -146t155 -54q121 0 212.5 85t114.5 220l101 577h163l-174 -995h-125l9 172q-62 -91 -158 -144t-203 -53q-143 0 -232 85t-89 221z" />
<glyph unicode="v" horiz-adv-x="1046" d="M131 995h160l172 -796l452 796h177l-580 -995h-152z" />
<glyph unicode="w" horiz-adv-x="1570" d="M147 995h154l111 -788l379 788h149l109 -788l378 788h172l-503 -995h-154l-108 788l-379 -788h-152z" />
<glyph unicode="x" horiz-adv-x="1046" d="M-39 0l467 516l-272 479h176l209 -381l344 381h186l-446 -493l284 -502h-176l-221 406l-362 -406h-189z" />
<glyph unicode="y" horiz-adv-x="1046" d="M-76 -432l31 131q56 -16 102 -16q64 0 117 42.5t105 137.5l83 147l-231 985h160l176 -796l448 796h177l-676 -1173q-82 -142 -167 -207.5t-190 -65.5q-64 0 -135 19z" />
<glyph unicode="z" horiz-adv-x="968" d="M4 0l16 98l691 768h-539l23 129h755l-16 -98l-690 -770h571l-24 -127h-787z" />
<glyph unicode="{" horiz-adv-x="690" d="M66 522l24 135h27q80 0 137 42t72 116q10 52 11 187.5t13 193.5q22 117 118 187.5t237 70.5h79l-24 -135h-47q-83 0 -141.5 -44.5t-75.5 -125.5q-9 -50 -11 -176.5t-10 -175.5q-25 -161 -192 -213q118 -44 118 -189q0 -67 -45 -196.5t-45 -192.5q0 -66 44 -105.5 t120 -39.5h29l-25 -135h-45q-130 0 -207 66.5t-77 172.5q0 74 49 205.5t49 202.5q0 66 -40 107.5t-104 41.5h-38z" />
<glyph unicode="|" horiz-adv-x="491" d="M176 -459v1966h139v-1966h-139z" />
<glyph unicode="}" horiz-adv-x="690" d="M-61 -274l24 135h47q83 0 141.5 45t73.5 125q11 51 13.5 178t9.5 174q25 161 192 213q-118 44 -118 188q0 67 45 197t45 193q0 66 -44 105.5t-120 39.5h-29l25 135h45q130 0 207 -67t77 -173q0 -74 -49 -205t-49 -202q0 -66 39.5 -108t103.5 -42h37l-22 -135h-27 q-80 0 -137 -41.5t-72 -115.5q-10 -52 -11 -187.5t-13 -193.5q-22 -117 -119 -187.5t-236 -70.5h-79z" />
<glyph unicode="~" d="M98 596q137 113 297 113q59 0 117.5 -15.5t98.5 -34t95 -34t107 -15.5q115 0 221 90l78 -116q-137 -113 -299 -113q-74 0 -145 24.5t-139 49t-134 24.5q-116 0 -219 -90z" />
<glyph unicode="&#xa1;" horiz-adv-x="538" d="M25 -381l180 946h137l-152 -946h-165zM215 885q0 54 37.5 91.5t91.5 37.5q44 0 72 -27.5t28 -71.5q0 -55 -38 -93t-93 -38q-44 0 -71 28t-27 73z" />
<glyph unicode="&#xa2;" d="M201 580q0 124 37.5 234.5t104 192.5t161 133.5t205.5 61.5l53 305h139l-53 -305q134 -15 258 -94l-76 -117q-125 86 -254 86q-176 0 -292.5 -138.5t-116.5 -344.5q0 -131 81 -213t211 -82t269 78l53 -113q-153 -87 -315 -96l-54 -299h-139l55 309q-148 27 -237.5 135.5 t-89.5 266.5z" />
<glyph unicode="&#xa3;" d="M53 0l23 131h205l92 510h-174l22 127h174l49 289q28 158 142.5 251t281.5 93q139 0 336 -84l-67 -125q-151 72 -256 72q-106 0 -179 -61t-92 -165l-47 -270h385l-22 -127h-385l-90 -510h557l-23 -131h-932z" />
<glyph unicode="&#xa4;" d="M137 303l166 166q-67 89 -67 219q0 125 65 219l-164 166l99 98l163 -165q88 67 222 67t219 -67l166 165l98 -98l-166 -166q70 -92 70 -219q0 -126 -70 -219l166 -166l-98 -98l-166 166q-90 -68 -219 -68q-127 0 -220 68l-165 -166zM362 688q0 -113 73 -184.5t186 -71.5 q114 0 186 71t72 185t-72 186t-186 72q-113 0 -186 -72t-73 -186z" />
<glyph unicode="&#xa5;" d="M139 311l21 117h334l32 190h-331l18 117h299l-317 641h176l266 -581l444 581h193l-520 -641h293l-19 -117h-332l-34 -190h333l-22 -117h-332l-53 -311h-170l53 311h-332z" />
<glyph unicode="&#xa6;" horiz-adv-x="491" d="M176 -360v786h139v-786h-139zM176 623v786h139v-786h-139z" />
<glyph unicode="&#xa7;" horiz-adv-x="1067" d="M-33 -244l58 129q201 -100 387 -100q119 0 192.5 59t73.5 154q0 52 -31 91.5t-80.5 65.5t-109.5 49.5t-119.5 51.5t-109 62.5t-80.5 91.5t-31 131q0 103 60.5 184.5t164.5 120.5q-98 75 -98 205q0 151 118 250.5t300 99.5q222 0 425 -98l-57 -127q-195 88 -362 88 q-116 0 -187 -57.5t-71 -147.5q0 -50 31 -88.5t80.5 -63.5t109 -48t119.5 -51t109.5 -63.5t80.5 -94t31 -134.5q0 -104 -59 -185.5t-160 -121.5q94 -78 94 -203q0 -158 -120 -258t-310 -100q-234 0 -449 108zM283 557q0 -40 16 -72.5t40 -54t61.5 -42.5t71 -34t79.5 -32 t76 -35q81 24 129.5 80t48.5 133q0 47 -19 83t-58 63t-73.5 44t-93 41t-88.5 39q-86 -20 -138 -79t-52 -134z" />
<glyph unicode="&#xa8;" horiz-adv-x="491" d="M68 1284q0 50 32.5 82.5t81.5 32.5q38 0 62 -24t24 -62q0 -47 -33.5 -81t-80.5 -34q-38 0 -62 24t-24 62zM496 1284q0 49 33 82t81 33q38 0 62 -24t24 -62q0 -48 -32.5 -81.5t-81.5 -33.5q-38 0 -62 24t-24 62z" />
<glyph unicode="&#xa9;" horiz-adv-x="1703" d="M131 688q0 218 96 390t268 268t390 96t390 -96t267.5 -268t95.5 -390t-95.5 -390t-267.5 -268t-390 -96t-390 96t-268 268t-96 390zM223 688q0 -192 84 -343t235 -234.5t343 -83.5q144 0 267 49t209.5 135.5t135.5 209.5t49 267q0 192 -83.5 343t-234.5 235t-343 84 t-343 -84t-235 -235t-84 -343zM483 688q0 195 118.5 318.5t307.5 123.5q155 0 295 -94l-57 -88q-109 76 -223 76q-138 0 -224 -93.5t-86 -242.5t86 -242.5t224 -93.5q114 0 223 76l57 -88q-140 -94 -295 -94q-189 0 -307.5 123.5t-118.5 318.5z" />
<glyph unicode="&#xaa;" horiz-adv-x="763" d="M57 473l17 92h657l-16 -92h-658zM158 893q0 106 85 167.5t230 61.5q77 0 156 -18l10 57q4 16 4 35q0 48 -38.5 78.5t-102.5 30.5q-95 0 -207 -37l-25 88q136 43 254 43q108 0 173 -51.5t65 -137.5q0 -24 -6 -51l-54 -291q-4 -20 -4 -28q0 -17 12.5 -27t32.5 -10 q25 0 33 2l4 -94q-30 -6 -71 -6q-46 0 -80 27t-41 71q-79 -98 -221 -98q-93 0 -151 53.5t-58 134.5zM279 905q0 -50 32.5 -80t89.5 -30q86 0 138.5 52t68.5 140l8 43q-80 17 -133 17q-95 0 -149.5 -38.5t-54.5 -103.5z" />
<glyph unicode="&#xab;" horiz-adv-x="1101" d="M55 469l15 84l479 451l86 -89l-418 -417l272 -406l-106 -72zM520 469l15 84l479 451l86 -89l-418 -417l272 -406l-106 -72z" />
<glyph unicode="&#xac;" d="M100 520v139h1008v-573h-139v434h-869z" />
<glyph unicode="&#xad;" horiz-adv-x="655" d="M45 446l23 127h548l-24 -127h-547z" />
<glyph unicode="&#xae;" horiz-adv-x="1703" d="M131 688q0 218 96 390t268 268t390 96t390 -96t267.5 -268t95.5 -390t-95.5 -390t-267.5 -268t-390 -96t-390 96t-268 268t-96 390zM223 688q0 -192 84 -343t235 -234.5t343 -83.5q144 0 267 49t209.5 135.5t135.5 209.5t49 267q0 192 -83.5 343t-234.5 235t-343 84 t-343 -84t-235 -235t-84 -343zM598 262v852h334q125 0 203.5 -72.5t78.5 -187.5q0 -97 -56 -164t-148 -82l233 -346h-135l-215 330h-176v-330h-119zM717 688h203q77 0 125.5 45t48.5 119q0 73 -48.5 117.5t-125.5 44.5h-203v-326z" />
<glyph unicode="&#xaf;" horiz-adv-x="491" d="M70 1241l20 117h604l-18 -117h-606z" />
<glyph unicode="&#xb0;" horiz-adv-x="679" d="M209 1114q0 121 80 201t200 80q94 0 152.5 -57.5t58.5 -151.5q0 -122 -79.5 -201.5t-200.5 -79.5q-94 0 -152.5 57.5t-58.5 151.5zM305 1128q0 -58 35.5 -93.5t93.5 -35.5q72 0 122 49.5t50 122.5q0 58 -36 93.5t-93 35.5q-73 0 -122.5 -49t-49.5 -123z" />
<glyph unicode="&#xb1;" d="M100 0v139h1008v-139h-1008zM100 702v140h435v432h139v-432h434v-140h-434v-434h-139v434h-435z" />
<glyph unicode="&#xb2;" horiz-adv-x="700" d="M100 786l15 84l377 322q139 116 139 211q0 68 -40 106.5t-112 38.5q-78 0 -203 -61l-38 92q149 76 274 76q112 0 177 -63t65 -171q0 -144 -168 -284l-293 -250h381l-19 -101h-555z" />
<glyph unicode="&#xb3;" horiz-adv-x="700" d="M111 846l47 90q126 -66 231 -66q80 0 133 46t53 116q0 67 -50 107.5t-134 40.5h-47l14 86h58q95 0 155 46.5t60 117.5q0 57 -40 90.5t-106 33.5q-95 0 -202 -41l-31 91q151 51 266 51q107 0 171.5 -57.5t64.5 -151.5q0 -82 -53 -142.5t-138 -82.5q65 -19 102 -70t37 -123 q0 -109 -88 -183.5t-217 -74.5q-140 0 -286 76z" />
<glyph unicode="&#xb4;" horiz-adv-x="491" d="M244 1223l370 237l66 -114l-381 -218z" />
<glyph unicode="&#xb5;" horiz-adv-x="1210" d="M-2 -426l250 1421h164l-105 -596q-8 -39 -8 -86q0 -92 58 -146t155 -54q121 0 212 85t114 220l102 577h164l-137 -780q-4 -24 -4 -39q0 -67 73 -67q21 0 49 4l9 -127q-64 -11 -109 -11q-78 0 -126 46t-48 124q-63 -79 -148.5 -123.5t-175.5 -44.5q-78 0 -140 32.5 t-93 88.5l-92 -524h-164z" />
<glyph unicode="&#xb6;" horiz-adv-x="1177" d="M160 903q0 133 69 241.5t188.5 170t264.5 61.5h446l-301 -1704h-139l275 1565h-218l-124 -707h-54q-189 0 -298 100.5t-109 272.5z" />
<glyph unicode="&#xb7;" horiz-adv-x="505" d="M139 494q0 54 38 91.5t93 37.5q43 0 71 -27.5t28 -71.5q0 -54 -38 -91.5t-93 -37.5q-43 0 -71 27.5t-28 71.5z" />
<glyph unicode="&#xb8;" horiz-adv-x="491" d="M-123 -412l39 93q82 -37 147 -37q53 0 87 26.5t34 67.5q0 36 -32 59t-80 23h-17l62 180h116l-38 -117q57 -12 88.5 -51t31.5 -98q0 -82 -68.5 -138.5t-170.5 -56.5q-92 0 -199 49z" />
<glyph unicode="&#xb9;" horiz-adv-x="557" d="M197 1481l303 157h106l-149 -852h-123l127 725l-225 -118z" />
<glyph unicode="&#xba;" horiz-adv-x="817" d="M90 473l16 92h644l-17 -92h-643zM170 981q0 181 107.5 299.5t275.5 118.5q129 0 209 -76.5t80 -200.5q0 -181 -107.5 -299t-275.5 -118q-129 0 -209 76t-80 200zM297 991q0 -84 47 -135t125 -51q106 0 176 87.5t70 219.5q0 84 -47 135t-125 51q-106 0 -176 -87.5 t-70 -219.5z" />
<glyph unicode="&#xbb;" horiz-adv-x="1101" d="M6 104l418 418l-270 406l104 71l330 -448l-15 -84l-481 -451zM471 104l418 418l-271 406l105 71l330 -448l-15 -84l-481 -451z" />
<glyph unicode="&#xbc;" horiz-adv-x="1966" d="M264 1219l303 157h107l-150 -852h-123l127 725l-225 -119zM340 37l1274 1380l78 -78l-1274 -1380zM1192 193l14 92l508 567h117l-100 -565h122l-16 -94h-123l-33 -193h-112l35 193h-412zM1325 287h295l76 420z" />
<glyph unicode="&#xbd;" horiz-adv-x="1966" d="M264 1219l303 157h107l-150 -852h-123l127 725l-225 -119zM340 37l1274 1380l78 -78l-1274 -1380zM1184 0l14 84l377 322q139 116 139 210q0 68 -40 107t-111 39q-76 0 -203 -62l-39 93q147 75 274 75q112 0 177 -62.5t65 -170.5q0 -145 -168 -285l-293 -250h381 l-18 -100h-555z" />
<glyph unicode="&#xbe;" horiz-adv-x="1966" d="M106 584l48 90q126 -66 231 -66q80 0 133 46t53 116q0 67 -50 107.5t-134 40.5h-47l14 86h58q95 0 155 46t60 117q0 57 -40 91t-106 34q-95 0 -202 -41l-31 90q154 52 266 52q107 0 171.5 -57.5t64.5 -151.5q0 -82 -53.5 -143t-137.5 -83q65 -19 102 -69.5t37 -122.5 q0 -109 -88 -183.5t-217 -74.5q-141 0 -287 76zM340 37l1274 1380l78 -78l-1274 -1380zM1192 193l14 92l508 567h117l-100 -565h122l-16 -94h-123l-33 -193h-112l35 193h-412zM1325 287h295l76 420z" />
<glyph unicode="&#xbf;" horiz-adv-x="811" d="M-14 -74q0 65 22.5 123t58.5 103t80.5 86.5t91 78.5t86 72t69 76t38.5 82l4 18h139l-4 -35q-8 -51 -36 -99t-65.5 -86.5t-80.5 -76.5t-85 -74t-76 -73t-55 -81.5t-21 -90.5q0 -96 61 -155.5t160 -59.5q139 0 299 94l57 -121q-186 -113 -389 -113q-162 0 -258 91.5 t-96 240.5zM442 889q0 54 35.5 89.5t89.5 35.5q41 0 66.5 -25.5t25.5 -66.5q0 -54 -35 -89.5t-89 -35.5q-41 0 -67 25.5t-26 66.5z" />
<glyph unicode="&#xc0;" horiz-adv-x="1357" d="M-51 0l807 1376h157l316 -1376h-162l-84 377h-641l-215 -377h-178zM414 506h544l-151 684zM594 1737l76 104l331 -239l-65 -93z" />
<glyph unicode="&#xc1;" horiz-adv-x="1357" d="M-51 0l807 1376h157l316 -1376h-162l-84 377h-641l-215 -377h-178zM414 506h544l-151 684zM735 1604l371 237l65 -115l-380 -217z" />
<glyph unicode="&#xc2;" horiz-adv-x="1357" d="M-51 0l807 1376h157l316 -1376h-162l-84 377h-641l-215 -377h-178zM414 506h544l-151 684zM549 1599l291 236h104l209 -248l-80 -74l-190 205l-273 -207z" />
<glyph unicode="&#xc3;" horiz-adv-x="1357" d="M-51 0l807 1376h157l316 -1376h-162l-84 377h-641l-215 -377h-178zM414 506h544l-151 684zM555 1616q25 73 78 116.5t121 43.5q54 0 130 -38t115 -38q31 0 57.5 20.5t39.5 55.5l98 -33q-25 -73 -78 -116.5t-121 -43.5q-55 0 -131 38t-114 38q-31 0 -58 -20.5t-39 -55.5z " />
<glyph unicode="&#xc4;" horiz-adv-x="1357" d="M-51 0l807 1376h157l316 -1376h-162l-84 377h-641l-215 -377h-178zM414 506h544l-151 684zM559 1665q0 49 32.5 82t82.5 33q38 0 62 -24t24 -62q0 -47 -34 -81t-81 -34q-38 0 -62 24t-24 62zM987 1665q0 49 33.5 82t81.5 33q38 0 62 -24t24 -62q0 -48 -33 -81.5 t-82 -33.5q-38 0 -62 24t-24 62z" />
<glyph unicode="&#xc5;" horiz-adv-x="1357" d="M-51 0l807 1376h157l316 -1376h-162l-84 377h-641l-215 -377h-178zM414 506h544l-151 684zM670 1651q0 97 67.5 162t165.5 65q78 0 126 -47.5t48 -122.5q0 -95 -67.5 -161t-165.5 -66q-77 0 -125.5 47.5t-48.5 122.5zM756 1661q0 -44 27 -71t73 -27q57 0 96 38.5t39 96.5 q0 45 -27.5 72.5t-72.5 27.5q-57 0 -96 -39.5t-39 -97.5z" />
<glyph unicode="&#xc6;" horiz-adv-x="1957" d="M-109 0l1133 1376h948l-24 -131h-695l-82 -477h627l-20 -127h-629l-90 -510h727l-23 -131h-891l64 377h-530l-308 -377h-207zM500 506h458l127 719z" />
<glyph unicode="&#xc7;" horiz-adv-x="1306" d="M125 530q0 247 96 445.5t272.5 312t401.5 113.5q240 0 453 -146l-82 -118q-178 125 -369 125q-177 0 -314.5 -93t-211.5 -255t-74 -365q0 -195 121.5 -314.5t314.5 -119.5q195 0 377 110l55 -119q-199 -123 -434 -129l-31 -94q56 -12 88.5 -51.5t32.5 -97.5 q0 -82 -68.5 -138.5t-170.5 -56.5q-92 0 -199 49l39 93q82 -37 147 -37q53 0 87 26.5t34 67.5q0 36 -32 59t-80 23h-17l55 162q-221 23 -356 172t-135 376z" />
<glyph unicode="&#xc8;" horiz-adv-x="1208" d="M117 0l241 1376h865l-25 -131h-694l-82 -477h629l-23 -127h-629l-90 -510h727l-22 -131h-897zM543 1737l75 104l332 -239l-65 -93z" />
<glyph unicode="&#xc9;" horiz-adv-x="1208" d="M117 0l241 1376h865l-25 -131h-694l-82 -477h629l-23 -127h-629l-90 -510h727l-22 -131h-897zM684 1604l371 237l65 -115l-381 -217z" />
<glyph unicode="&#xca;" horiz-adv-x="1208" d="M117 0l241 1376h865l-25 -131h-694l-82 -477h629l-23 -127h-629l-90 -510h727l-22 -131h-897zM498 1599l290 236h105l209 -248l-80 -74l-191 205l-272 -207z" />
<glyph unicode="&#xcb;" horiz-adv-x="1208" d="M117 0l241 1376h865l-25 -131h-694l-82 -477h629l-23 -127h-629l-90 -510h727l-22 -131h-897zM508 1665q0 49 33 82t82 33q38 0 62 -24t24 -62q0 -47 -34 -81t-81 -34q-38 0 -62 24t-24 62zM936 1665q0 49 33.5 82t81.5 33q38 0 62 -24t24 -62q0 -48 -33 -81.5t-82 -33.5 q-38 0 -62 24t-24 62z" />
<glyph unicode="&#xcc;" horiz-adv-x="577" d="M117 0l241 1376h170l-241 -1376h-170zM213 1737l76 104l332 -239l-66 -93z" />
<glyph unicode="&#xcd;" horiz-adv-x="577" d="M117 0l241 1376h170l-241 -1376h-170zM354 1604l371 237l66 -115l-381 -217z" />
<glyph unicode="&#xce;" horiz-adv-x="577" d="M117 0l241 1376h170l-241 -1376h-170zM168 1599l291 236h104l209 -248l-80 -74l-190 205l-273 -207z" />
<glyph unicode="&#xcf;" horiz-adv-x="577" d="M117 0l241 1376h170l-241 -1376h-170zM178 1665q0 49 33 82t82 33q38 0 62 -24t24 -62q0 -47 -34 -81t-81 -34q-38 0 -62 24t-24 62zM606 1665q0 49 33.5 82t81.5 33q38 0 62 -24t24 -62q0 -48 -33 -81.5t-82 -33.5q-38 0 -62 24t-24 62z" />
<glyph unicode="&#xd0;" horiz-adv-x="1472" d="M78 641l22 127h185l106 608h400q292 0 457 -147.5t165 -407.5q0 -239 -101.5 -426t-283 -291t-412.5 -104h-466l112 641h-184zM340 133h272q277 0 453 187.5t176 486.5q0 208 -124.5 322t-354.5 114h-225l-82 -475h333l-24 -127h-334z" />
<glyph unicode="&#xd1;" horiz-adv-x="1521" d="M117 0l241 1376h160l594 -1134l201 1134h157l-241 -1376h-160l-594 1135l-201 -1135h-157zM645 1616q25 73 78 116.5t121 43.5q54 0 131 -38t115 -38q31 0 57 20.5t39 55.5l98 -33q-25 -73 -78 -116.5t-121 -43.5q-55 0 -131 38t-114 38q-31 0 -58 -20.5t-39 -55.5z" />
<glyph unicode="&#xd2;" horiz-adv-x="1521" d="M125 530q0 249 99 448t274.5 311t394.5 112q254 0 411.5 -151.5t157.5 -403.5q0 -186 -58 -348t-159 -277t-243.5 -180.5t-305.5 -65.5q-255 0 -413 151.5t-158 403.5zM297 545q0 -197 114.5 -314.5t299.5 -117.5q164 0 296.5 92.5t207.5 257t75 368.5q0 198 -114 315.5 t-299 117.5q-164 0 -296.5 -93t-208 -257.5t-75.5 -368.5zM684 1737l76 104l332 -239l-66 -93z" />
<glyph unicode="&#xd3;" horiz-adv-x="1521" d="M125 530q0 249 99 448t274.5 311t394.5 112q254 0 411.5 -151.5t157.5 -403.5q0 -186 -58 -348t-159 -277t-243.5 -180.5t-305.5 -65.5q-255 0 -413 151.5t-158 403.5zM297 545q0 -197 114.5 -314.5t299.5 -117.5q164 0 296.5 92.5t207.5 257t75 368.5q0 198 -114 315.5 t-299 117.5q-164 0 -296.5 -93t-208 -257.5t-75.5 -368.5zM825 1604l371 237l66 -115l-381 -217z" />
<glyph unicode="&#xd4;" horiz-adv-x="1521" d="M125 530q0 249 99 448t274.5 311t394.5 112q254 0 411.5 -151.5t157.5 -403.5q0 -186 -58 -348t-159 -277t-243.5 -180.5t-305.5 -65.5q-255 0 -413 151.5t-158 403.5zM297 545q0 -197 114.5 -314.5t299.5 -117.5q164 0 296.5 92.5t207.5 257t75 368.5q0 198 -114 315.5 t-299 117.5q-164 0 -296.5 -93t-208 -257.5t-75.5 -368.5zM639 1599l291 236h104l209 -248l-80 -74l-190 205l-273 -207z" />
<glyph unicode="&#xd5;" horiz-adv-x="1521" d="M125 530q0 249 99 448t274.5 311t394.5 112q254 0 411.5 -151.5t157.5 -403.5q0 -186 -58 -348t-159 -277t-243.5 -180.5t-305.5 -65.5q-255 0 -413 151.5t-158 403.5zM297 545q0 -197 114.5 -314.5t299.5 -117.5q164 0 296.5 92.5t207.5 257t75 368.5q0 198 -114 315.5 t-299 117.5q-164 0 -296.5 -93t-208 -257.5t-75.5 -368.5zM645 1616q25 73 78 116.5t121 43.5q54 0 131 -38t115 -38q31 0 57 20.5t39 55.5l98 -33q-25 -73 -78 -116.5t-121 -43.5q-55 0 -131 38t-114 38q-31 0 -58 -20.5t-39 -55.5z" />
<glyph unicode="&#xd6;" horiz-adv-x="1521" d="M125 530q0 249 99 448t274.5 311t394.5 112q254 0 411.5 -151.5t157.5 -403.5q0 -186 -58 -348t-159 -277t-243.5 -180.5t-305.5 -65.5q-255 0 -413 151.5t-158 403.5zM297 545q0 -197 114.5 -314.5t299.5 -117.5q164 0 296.5 92.5t207.5 257t75 368.5q0 198 -114 315.5 t-299 117.5q-164 0 -296.5 -93t-208 -257.5t-75.5 -368.5zM649 1665q0 49 32.5 82t82.5 33q38 0 62 -24t24 -62q0 -47 -34 -81t-81 -34q-38 0 -62 24t-24 62zM1077 1665q0 49 33.5 82t81.5 33q38 0 62 -24t24 -62q0 -48 -33 -81.5t-82 -33.5q-38 0 -62 24t-24 62z" />
<glyph unicode="&#xd7;" d="M139 223l367 367l-367 366l99 101l366 -369l369 369l98 -101l-369 -366l369 -367l-98 -100l-369 369l-366 -369z" />
<glyph unicode="&#xd8;" horiz-adv-x="1521" d="M113 27l129 143q-117 142 -117 360q0 249 98.5 448t274 311t395.5 112q223 0 371 -129l133 145l80 -67l-134 -144q119 -144 119 -360q0 -249 -98.5 -448t-273.5 -311t-394 -112q-226 0 -372 127l-134 -143zM285 545q0 -148 71 -252l805 870q-110 107 -284 107 q-169 0 -304.5 -93.5t-211.5 -259.5t-76 -372zM426 213q107 -104 285 -104q126 0 236.5 54.5t188.5 149.5t122.5 229.5t44.5 288.5q0 145 -74 252z" />
<glyph unicode="&#xd9;" horiz-adv-x="1521" d="M186 428q0 53 9 115l147 833h170l-147 -833q-9 -53 -9 -99q0 -150 97 -240.5t256 -90.5q177 0 300.5 107t155.5 290l152 866h170l-156 -878q-41 -242 -212.5 -382.5t-420.5 -140.5q-227 0 -369.5 126t-142.5 327zM684 1737l76 104l332 -239l-66 -93z" />
<glyph unicode="&#xda;" horiz-adv-x="1521" d="M186 428q0 53 9 115l147 833h170l-147 -833q-9 -53 -9 -99q0 -150 97 -240.5t256 -90.5q177 0 300.5 107t155.5 290l152 866h170l-156 -878q-41 -242 -212.5 -382.5t-420.5 -140.5q-227 0 -369.5 126t-142.5 327zM825 1604l371 237l66 -115l-381 -217z" />
<glyph unicode="&#xdb;" horiz-adv-x="1521" d="M186 428q0 53 9 115l147 833h170l-147 -833q-9 -53 -9 -99q0 -150 97 -240.5t256 -90.5q177 0 300.5 107t155.5 290l152 866h170l-156 -878q-41 -242 -212.5 -382.5t-420.5 -140.5q-227 0 -369.5 126t-142.5 327zM639 1599l291 236h104l209 -248l-80 -74l-190 205 l-273 -207z" />
<glyph unicode="&#xdc;" horiz-adv-x="1521" d="M186 428q0 53 9 115l147 833h170l-147 -833q-9 -53 -9 -99q0 -150 97 -240.5t256 -90.5q177 0 300.5 107t155.5 290l152 866h170l-156 -878q-41 -242 -212.5 -382.5t-420.5 -140.5q-227 0 -369.5 126t-142.5 327zM649 1665q0 49 32.5 82t82.5 33q38 0 62 -24t24 -62 q0 -47 -34 -81t-81 -34q-38 0 -62 24t-24 62zM1077 1665q0 49 33.5 82t81.5 33q38 0 62 -24t24 -62q0 -48 -33 -81.5t-82 -33.5q-38 0 -62 24t-24 62z" />
<glyph unicode="&#xdd;" horiz-adv-x="1210" d="M160 1376h178l305 -635l485 635h195l-618 -794l-103 -582h-170l105 594zM653 1604l371 237l66 -115l-381 -217z" />
<glyph unicode="&#xde;" horiz-adv-x="1253" d="M117 0l241 1376h164l-43 -239h320q185 0 295 -105t110 -280q0 -207 -146 -343.5t-370 -136.5h-360l-47 -272h-164zM352 408h324q160 0 261 92t101 239q0 121 -75.5 191.5t-206.5 70.5h-299z" />
<glyph unicode="&#xdf;" horiz-adv-x="1243" d="M74 0l194 1116q29 161 144.5 255.5t287.5 94.5q169 0 269 -81.5t100 -219.5q0 -60 -26 -114.5t-63 -95t-74 -78.5t-63 -80t-26 -84q0 -40 17 -72t44 -54.5t59.5 -44t65.5 -45.5t60 -53t44 -73.5t17 -100.5q0 -127 -103.5 -211t-264.5 -84q-162 0 -316 80l58 121 q133 -74 258 -74q93 0 152 46t59 116q0 45 -23.5 80.5t-59 57t-76.5 48.5t-76.5 54.5t-59 75t-23.5 108.5q0 54 26.5 105t64 92t75 81.5t64 89t26.5 99.5q0 85 -57 134.5t-156 49.5q-106 0 -177 -64t-91 -179l-193 -1096h-157z" />
<glyph unicode="&#xe0;" horiz-adv-x="1116" d="M53 258q0 160 128 253t347 93q114 0 236 -29l14 87q6 54 6 57q0 77 -57.5 126.5t-155.5 49.5q-138 0 -315 -57l-29 118q198 64 375 64q154 0 247 -80t93 -209q0 -24 -8 -74l-80 -456q-4 -20 -4 -33q0 -30 21 -48t55 -18q21 0 49 4l6 -120q-64 -11 -107 -11q-74 0 -121 43 t-48 113q-64 -76 -152.5 -116t-187.5 -40q-137 0 -224.5 79.5t-87.5 203.5zM213 276q0 -83 54 -132.5t147 -49.5q119 0 206 79t109 206l19 98q-116 25 -213 25q-147 0 -234.5 -62t-87.5 -164zM391 1356l76 104l332 -239l-66 -93z" />
<glyph unicode="&#xe1;" horiz-adv-x="1116" d="M53 258q0 160 128 253t347 93q114 0 236 -29l14 87q6 54 6 57q0 77 -57.5 126.5t-155.5 49.5q-138 0 -315 -57l-29 118q198 64 375 64q154 0 247 -80t93 -209q0 -24 -8 -74l-80 -456q-4 -20 -4 -33q0 -30 21 -48t55 -18q21 0 49 4l6 -120q-64 -11 -107 -11q-74 0 -121 43 t-48 113q-64 -76 -152.5 -116t-187.5 -40q-137 0 -224.5 79.5t-87.5 203.5zM213 276q0 -83 54 -132.5t147 -49.5q119 0 206 79t109 206l19 98q-116 25 -213 25q-147 0 -234.5 -62t-87.5 -164zM532 1223l371 237l66 -114l-381 -218z" />
<glyph unicode="&#xe2;" horiz-adv-x="1116" d="M53 258q0 160 128 253t347 93q114 0 236 -29l14 87q6 54 6 57q0 77 -57.5 126.5t-155.5 49.5q-138 0 -315 -57l-29 118q198 64 375 64q154 0 247 -80t93 -209q0 -24 -8 -74l-80 -456q-4 -20 -4 -33q0 -30 21 -48t55 -18q21 0 49 4l6 -120q-64 -11 -107 -11q-74 0 -121 43 t-48 113q-64 -76 -152.5 -116t-187.5 -40q-137 0 -224.5 79.5t-87.5 203.5zM213 276q0 -83 54 -132.5t147 -49.5q119 0 206 79t109 206l19 98q-116 25 -213 25q-147 0 -234.5 -62t-87.5 -164zM346 1219l291 235h104l209 -248l-80 -73l-190 204l-272 -207z" />
<glyph unicode="&#xe3;" horiz-adv-x="1116" d="M53 258q0 160 128 253t347 93q114 0 236 -29l14 87q6 54 6 57q0 77 -57.5 126.5t-155.5 49.5q-138 0 -315 -57l-29 118q198 64 375 64q154 0 247 -80t93 -209q0 -24 -8 -74l-80 -456q-4 -20 -4 -33q0 -30 21 -48t55 -18q21 0 49 4l6 -120q-64 -11 -107 -11q-74 0 -121 43 t-48 113q-64 -76 -152.5 -116t-187.5 -40q-137 0 -224.5 79.5t-87.5 203.5zM213 276q0 -83 54 -132.5t147 -49.5q119 0 206 79t109 206l19 98q-116 25 -213 25q-147 0 -234.5 -62t-87.5 -164zM352 1235q25 73 78 116.5t121 43.5q53 0 130 -38t116 -38q31 0 57 20.5t39 55.5 l98 -33q-25 -73 -77.5 -116.5t-120.5 -43.5q-55 0 -131.5 38t-114.5 38q-31 0 -57.5 -20.5t-38.5 -55.5z" />
<glyph unicode="&#xe4;" horiz-adv-x="1116" d="M53 258q0 160 128 253t347 93q114 0 236 -29l14 87q6 54 6 57q0 77 -57.5 126.5t-155.5 49.5q-138 0 -315 -57l-29 118q198 64 375 64q154 0 247 -80t93 -209q0 -24 -8 -74l-80 -456q-4 -20 -4 -33q0 -30 21 -48t55 -18q21 0 49 4l6 -120q-64 -11 -107 -11q-74 0 -121 43 t-48 113q-64 -76 -152.5 -116t-187.5 -40q-137 0 -224.5 79.5t-87.5 203.5zM213 276q0 -83 54 -132.5t147 -49.5q119 0 206 79t109 206l19 98q-116 25 -213 25q-147 0 -234.5 -62t-87.5 -164zM356 1284q0 50 33 82.5t82 32.5q38 0 62 -24t24 -62q0 -47 -34 -81t-81 -34 q-38 0 -62 24t-24 62zM784 1284q0 49 33.5 82t81.5 33q38 0 62 -24t24 -62q0 -48 -33 -81.5t-82 -33.5q-38 0 -62 24t-24 62z" />
<glyph unicode="&#xe5;" horiz-adv-x="1116" d="M53 258q0 160 128 253t347 93q114 0 236 -29l14 87q6 54 6 57q0 77 -57.5 126.5t-155.5 49.5q-138 0 -315 -57l-29 118q198 64 375 64q154 0 247 -80t93 -209q0 -24 -8 -74l-80 -456q-4 -20 -4 -33q0 -30 21 -48t55 -18q21 0 49 4l6 -120q-64 -11 -107 -11q-74 0 -121 43 t-48 113q-64 -76 -152.5 -116t-187.5 -40q-137 0 -224.5 79.5t-87.5 203.5zM213 276q0 -83 54 -132.5t147 -49.5q119 0 206 79t109 206l19 98q-116 25 -213 25q-147 0 -234.5 -62t-87.5 -164zM467 1270q0 97 67.5 162t165.5 65q78 0 126 -47.5t48 -122.5q0 -95 -67.5 -161 t-165.5 -66q-77 0 -125.5 47.5t-48.5 122.5zM553 1280q0 -44 27 -71t73 -27q57 0 96 38.5t39 96.5q0 45 -27.5 72.5t-72.5 27.5q-57 0 -96 -39.5t-39 -97.5z" />
<glyph unicode="&#xe6;" horiz-adv-x="1736" d="M53 258q0 160 128 253t347 93q114 0 236 -29l14 87q6 54 6 57q0 77 -56.5 126.5t-156.5 49.5q-138 0 -315 -57l-29 118q198 64 375 64q118 0 197 -52t102 -147q66 94 165 146.5t222 52.5q169 0 276 -111t107 -286q0 -88 -22 -166h-750q-5 -38 -2 -82q6 -123 88.5 -199 t210.5 -76q144 0 293 90l53 -110q-188 -105 -368 -105q-140 0 -243 67t-143 183q-55 -115 -166 -182.5t-243 -67.5q-145 0 -235.5 79.5t-90.5 203.5zM213 276q0 -83 54 -132.5t147 -49.5q118 0 205 79.5t110 205.5l19 98q-116 25 -213 25q-147 0 -234.5 -62t-87.5 -164z M915 561h596q7 45 5 76q-1 117 -68 187.5t-176 70.5q-128 0 -227 -92.5t-130 -241.5z" />
<glyph unicode="&#xe7;" horiz-adv-x="991" d="M82 389q0 177 73.5 321.5t205 227t294.5 82.5q183 0 336 -105l-80 -114q-122 84 -254 84q-176 0 -291.5 -138.5t-115.5 -343.5q0 -133 80.5 -213.5t210.5 -80.5q135 0 268 81l53 -116q-157 -91 -321 -97l-31 -94q56 -12 88.5 -51.5t32.5 -97.5q0 -82 -69 -138.5 t-171 -56.5q-91 0 -198 49l38 93q82 -37 148 -37q51 0 85 26.5t34 67.5q0 36 -31.5 59t-79.5 23h-16l55 164q-155 23 -249.5 132.5t-94.5 272.5z" />
<glyph unicode="&#xe8;" horiz-adv-x="1083" d="M82 389q0 133 42 250t115 200.5t176 132t220 48.5q169 0 276 -111t107 -286q0 -80 -21 -166h-749q-5 -38 -2 -82q6 -123 88.5 -199t210.5 -76q142 0 291 90l53 -110q-187 -105 -369 -105q-195 0 -316.5 114t-121.5 300zM262 561h598q4 25 4 76q-3 117 -69.5 187.5 t-173.5 70.5q-129 0 -228 -92.5t-131 -241.5zM424 1356l76 104l331 -239l-65 -93z" />
<glyph unicode="&#xe9;" horiz-adv-x="1083" d="M82 389q0 133 42 250t115 200.5t176 132t220 48.5q169 0 276 -111t107 -286q0 -80 -21 -166h-749q-5 -38 -2 -82q6 -123 88.5 -199t210.5 -76q142 0 291 90l53 -110q-187 -105 -369 -105q-195 0 -316.5 114t-121.5 300zM262 561h598q4 25 4 76q-3 117 -69.5 187.5 t-173.5 70.5q-129 0 -228 -92.5t-131 -241.5zM565 1223l371 237l65 -114l-380 -218z" />
<glyph unicode="&#xea;" horiz-adv-x="1083" d="M82 389q0 133 42 250t115 200.5t176 132t220 48.5q169 0 276 -111t107 -286q0 -80 -21 -166h-749q-5 -38 -2 -82q6 -123 88.5 -199t210.5 -76q142 0 291 90l53 -110q-187 -105 -369 -105q-195 0 -316.5 114t-121.5 300zM262 561h598q4 25 4 76q-3 117 -69.5 187.5 t-173.5 70.5q-129 0 -228 -92.5t-131 -241.5zM379 1219l291 235h104l209 -248l-80 -73l-190 204l-273 -207z" />
<glyph unicode="&#xeb;" horiz-adv-x="1083" d="M82 389q0 133 42 250t115 200.5t176 132t220 48.5q169 0 276 -111t107 -286q0 -80 -21 -166h-749q-5 -38 -2 -82q6 -123 88.5 -199t210.5 -76q142 0 291 90l53 -110q-187 -105 -369 -105q-195 0 -316.5 114t-121.5 300zM262 561h598q4 25 4 76q-3 117 -69.5 187.5 t-173.5 70.5q-129 0 -228 -92.5t-131 -241.5zM389 1284q0 50 32.5 82.5t82.5 32.5q38 0 62 -24t24 -62q0 -47 -34 -81t-81 -34q-38 0 -62 24t-24 62zM817 1284q0 49 33.5 82t81.5 33q38 0 62 -24t24 -62q0 -48 -33 -81.5t-82 -33.5q-38 0 -62 24t-24 62z" />
<glyph unicode="&#xec;" horiz-adv-x="485" d="M74 0l174 995h164l-174 -995h-164zM100 1356l76 104l332 -239l-66 -93z" />
<glyph unicode="&#xed;" horiz-adv-x="485" d="M74 0l174 995h164l-174 -995h-164zM242 1223l370 237l66 -114l-381 -218z" />
<glyph unicode="&#xee;" horiz-adv-x="485" d="M55 1219l291 235h105l208 -248l-79 -73l-191 204l-272 -207zM74 0l174 995h164l-174 -995h-164z" />
<glyph unicode="&#xef;" horiz-adv-x="485" d="M66 1284q0 50 32.5 82.5t81.5 32.5q38 0 62 -24t24 -62q0 -47 -33.5 -81t-80.5 -34q-38 0 -62 24t-24 62zM74 0l174 995h164l-174 -995h-164zM494 1284q0 49 33 82t81 33q38 0 62 -24t24 -62q0 -48 -32.5 -81.5t-81.5 -33.5q-38 0 -62 24t-24 62z" />
<glyph unicode="&#xf0;" horiz-adv-x="1161" d="M82 379q0 178 69.5 320t195 222t282.5 80q180 0 280 -139q-44 237 -194 369l-285 -123l-37 90l221 98q-64 44 -141 78l43 109q135 -45 244 -125l248 108l36 -92l-202 -88q237 -234 237 -635q0 -299 -164 -487.5t-419 -188.5q-185 0 -299.5 114t-114.5 290zM240 391 q0 -131 75 -211t199 -80q167 0 278 139.5t111 346.5q0 131 -74.5 211t-197.5 80q-169 0 -280 -138.5t-111 -347.5z" />
<glyph unicode="&#xf1;" horiz-adv-x="1161" d="M74 0l174 995h125l-8 -172q62 91 157.5 144t202.5 53q143 0 232.5 -85t89.5 -220q0 -45 -11 -109l-106 -606h-164l106 596q9 65 9 84q0 93 -59 148t-156 55q-121 0 -212 -85t-114 -220l-102 -578h-164zM399 1235q25 73 78 116.5t121 43.5q54 0 131 -38t115 -38 q31 0 57 20.5t39 55.5l98 -33q-25 -73 -77.5 -116.5t-120.5 -43.5q-55 0 -131.5 38t-114.5 38q-31 0 -57.5 -20.5t-38.5 -55.5z" />
<glyph unicode="&#xf2;" horiz-adv-x="1161" d="M82 389q0 179 73 323t204.5 226t295.5 82q189 0 306.5 -114.5t117.5 -299.5q0 -179 -73 -323t-203.5 -226t-294.5 -82q-191 0 -308.5 114t-117.5 300zM250 401q0 -132 74.5 -213.5t197.5 -81.5q168 0 279.5 139t111.5 349q0 132 -75.5 213.5t-198.5 81.5 q-168 0 -278.5 -139t-110.5 -349zM438 1356l76 104l332 -239l-66 -93z" />
<glyph unicode="&#xf3;" horiz-adv-x="1161" d="M82 389q0 179 73 323t204.5 226t295.5 82q189 0 306.5 -114.5t117.5 -299.5q0 -179 -73 -323t-203.5 -226t-294.5 -82q-191 0 -308.5 114t-117.5 300zM250 401q0 -132 74.5 -213.5t197.5 -81.5q168 0 279.5 139t111.5 349q0 132 -75.5 213.5t-198.5 81.5 q-168 0 -278.5 -139t-110.5 -349zM580 1223l370 237l66 -114l-381 -218z" />
<glyph unicode="&#xf4;" horiz-adv-x="1161" d="M82 389q0 179 73 323t204.5 226t295.5 82q189 0 306.5 -114.5t117.5 -299.5q0 -179 -73 -323t-203.5 -226t-294.5 -82q-191 0 -308.5 114t-117.5 300zM250 401q0 -132 74.5 -213.5t197.5 -81.5q168 0 279.5 139t111.5 349q0 132 -75.5 213.5t-198.5 81.5 q-168 0 -278.5 -139t-110.5 -349zM393 1219l291 235h104l209 -248l-79 -73l-191 204l-272 -207z" />
<glyph unicode="&#xf5;" horiz-adv-x="1161" d="M82 389q0 179 73 323t204.5 226t295.5 82q189 0 306.5 -114.5t117.5 -299.5q0 -179 -73 -323t-203.5 -226t-294.5 -82q-191 0 -308.5 114t-117.5 300zM250 401q0 -132 74.5 -213.5t197.5 -81.5q168 0 279.5 139t111.5 349q0 132 -75.5 213.5t-198.5 81.5 q-168 0 -278.5 -139t-110.5 -349zM399 1235q25 73 78 116.5t121 43.5q54 0 131 -38t115 -38q31 0 57 20.5t39 55.5l98 -33q-25 -73 -77.5 -116.5t-120.5 -43.5q-55 0 -131.5 38t-114.5 38q-31 0 -57.5 -20.5t-38.5 -55.5z" />
<glyph unicode="&#xf6;" horiz-adv-x="1161" d="M82 389q0 179 73 323t204.5 226t295.5 82q189 0 306.5 -114.5t117.5 -299.5q0 -179 -73 -323t-203.5 -226t-294.5 -82q-191 0 -308.5 114t-117.5 300zM250 401q0 -132 74.5 -213.5t197.5 -81.5q168 0 279.5 139t111.5 349q0 132 -75.5 213.5t-198.5 81.5 q-168 0 -278.5 -139t-110.5 -349zM403 1284q0 50 32.5 82.5t82.5 32.5q38 0 62 -24t24 -62q0 -47 -34 -81t-81 -34q-38 0 -62 24t-24 62zM831 1284q0 49 33.5 82t81.5 33q38 0 62 -24t24 -62q0 -48 -32.5 -81.5t-81.5 -33.5q-38 0 -62.5 24t-24.5 62z" />
<glyph unicode="&#xf7;" d="M123 526v127h964v-127h-964zM510 197q0 41 26.5 67.5t67.5 26.5q43 0 69.5 -26.5t26.5 -67.5t-27 -68t-69 -27q-41 0 -67.5 27t-26.5 68zM510 983q0 41 26.5 67.5t67.5 26.5q43 0 69.5 -25t26.5 -69q0 -41 -26.5 -67.5t-69.5 -26.5q-41 0 -67.5 26.5t-26.5 67.5z" />
<glyph unicode="&#xf8;" horiz-adv-x="1161" d="M76 16l94 105q-88 109 -88 268q0 179 73 323t204.5 226t295.5 82q154 0 265 -90l98 108l67 -59l-96 -105q90 -111 90 -268q0 -179 -73 -323t-203.5 -226t-294.5 -82q-157 0 -266 91l-101 -111zM238 401q0 -91 45 -161l538 583q-75 72 -182 72q-173 0 -287 -140.5 t-114 -353.5zM338 170q73 -70 184 -70q173 0 287.5 141t114.5 353q0 96 -45 160z" />
<glyph unicode="&#xf9;" horiz-adv-x="1161" d="M115 281q0 50 10 108l106 606h164l-104 -596q-8 -39 -8 -86q0 -92 58 -146t155 -54q121 0 212.5 85t114.5 220l101 577h163l-174 -995h-125l9 172q-62 -91 -158 -144t-203 -53q-143 0 -232 85t-89 221zM438 1356l76 104l332 -239l-66 -93z" />
<glyph unicode="&#xfa;" horiz-adv-x="1161" d="M115 281q0 50 10 108l106 606h164l-104 -596q-8 -39 -8 -86q0 -92 58 -146t155 -54q121 0 212.5 85t114.5 220l101 577h163l-174 -995h-125l9 172q-62 -91 -158 -144t-203 -53q-143 0 -232 85t-89 221zM580 1223l370 237l66 -114l-381 -218z" />
<glyph unicode="&#xfb;" horiz-adv-x="1161" d="M115 281q0 50 10 108l106 606h164l-104 -596q-8 -39 -8 -86q0 -92 58 -146t155 -54q121 0 212.5 85t114.5 220l101 577h163l-174 -995h-125l9 172q-62 -91 -158 -144t-203 -53q-143 0 -232 85t-89 221zM393 1219l291 235h104l209 -248l-79 -73l-191 204l-272 -207z" />
<glyph unicode="&#xfc;" horiz-adv-x="1161" d="M115 281q0 50 10 108l106 606h164l-104 -596q-8 -39 -8 -86q0 -92 58 -146t155 -54q121 0 212.5 85t114.5 220l101 577h163l-174 -995h-125l9 172q-62 -91 -158 -144t-203 -53q-143 0 -232 85t-89 221zM403 1284q0 50 32.5 82.5t82.5 32.5q38 0 62 -24t24 -62 q0 -47 -34 -81t-81 -34q-38 0 -62 24t-24 62zM831 1284q0 49 33.5 82t81.5 33q38 0 62 -24t24 -62q0 -48 -32.5 -81.5t-81.5 -33.5q-38 0 -62.5 24t-24.5 62z" />
<glyph unicode="&#xfd;" horiz-adv-x="1046" d="M-76 -432l31 131q56 -16 102 -16q64 0 117 42.5t105 137.5l83 147l-231 985h160l176 -796l448 796h177l-676 -1173q-82 -142 -167 -207.5t-190 -65.5q-64 0 -135 19zM506 1223l371 237l65 -114l-381 -218z" />
<glyph unicode="&#xfe;" horiz-adv-x="1161" d="M-2 -426l330 1868h159l-100 -586q62 78 146.5 121t179.5 43q166 0 266 -108.5t100 -288.5q0 -182 -66 -330.5t-184 -233t-264 -84.5q-106 0 -186.5 52t-112.5 143l-104 -596h-164zM303 358q0 -108 66.5 -176.5t171.5 -68.5q161 0 266.5 140t105.5 351q0 124 -71 201.5 t-185 77.5q-117 0 -206.5 -79.5t-112.5 -205.5l-29 -164q-6 -40 -6 -76z" />
<glyph unicode="&#xff;" horiz-adv-x="1046" d="M-76 -432l31 131q56 -16 102 -16q64 0 117 42.5t105 137.5l83 147l-231 985h160l176 -796l448 796h177l-676 -1173q-82 -142 -167 -207.5t-190 -65.5q-64 0 -135 19zM330 1284q0 50 32.5 82.5t81.5 32.5q38 0 62 -24t24 -62q0 -47 -33.5 -81t-80.5 -34q-38 0 -62 24 t-24 62zM758 1284q0 49 33 82t81 33q38 0 62 -24t24 -62q0 -48 -32.5 -81.5t-81.5 -33.5q-38 0 -62 24t-24 62z" />
<glyph unicode="&#x152;" horiz-adv-x="2031" d="M125 557q0 180 58 333t161 259.5t250 166.5t319 60h1133l-23 -131h-694l-84 -477h629l-23 -127h-628l-90 -510h727l-23 -131h-1104q-284 0 -446 148.5t-162 408.5zM299 569q0 -205 123 -320.5t344 -115.5h199l192 1110h-239q-274 0 -446.5 -187.5t-172.5 -486.5z" />
<glyph unicode="&#x153;" horiz-adv-x="1900" d="M82 389q0 179 73 323t204.5 226t295.5 82q138 0 237 -73t132 -195q68 123 180.5 195.5t247.5 72.5q169 0 276 -111t107 -286q0 -84 -23 -166h-749q-5 -38 -2 -82q6 -123 88.5 -199t210.5 -76q144 0 293 90l53 -110q-188 -105 -369 -105q-145 0 -248 73t-137 196 q-69 -125 -184.5 -197t-259.5 -72q-191 0 -308.5 114t-117.5 300zM250 401q0 -132 74.5 -213.5t197.5 -81.5q168 0 279.5 139t111.5 349q0 132 -75.5 213.5t-198.5 81.5q-168 0 -278.5 -139t-110.5 -349zM1079 561h596q7 41 4 76q-2 116 -68.5 187t-174.5 71 q-128 0 -227 -92.5t-130 -241.5z" />
<glyph unicode="&#x178;" horiz-adv-x="1210" d="M160 1376h178l305 -635l485 635h195l-618 -794l-103 -582h-170l105 594zM477 1665q0 49 32.5 82t82.5 33q38 0 62 -24t24 -62q0 -47 -34 -81t-81 -34q-38 0 -62 24t-24 62zM905 1665q0 49 33.5 82t81.5 33q38 0 62 -24t24 -62q0 -48 -33 -81.5t-82 -33.5q-38 0 -62 24 t-24 62z" />
<glyph unicode="&#x2c6;" horiz-adv-x="491" d="M57 1219l291 235h105l209 -248l-80 -73l-191 204l-272 -207z" />
<glyph unicode="&#x2dc;" horiz-adv-x="491" d="M63 1235q25 73 78 116.5t121 43.5q54 0 131 -38t115 -38q31 0 57 20.5t39 55.5l98 -33q-25 -73 -77.5 -116.5t-120.5 -43.5q-55 0 -131.5 38t-114.5 38q-31 0 -57.5 -20.5t-38.5 -55.5z" />
<glyph unicode="&#x2000;" horiz-adv-x="939" />
<glyph unicode="&#x2001;" horiz-adv-x="1878" />
<glyph unicode="&#x2002;" horiz-adv-x="939" />
<glyph unicode="&#x2003;" horiz-adv-x="1878" />
<glyph unicode="&#x2004;" horiz-adv-x="626" />
<glyph unicode="&#x2005;" horiz-adv-x="469" />
<glyph unicode="&#x2006;" horiz-adv-x="313" />
<glyph unicode="&#x2007;" horiz-adv-x="313" />
<glyph unicode="&#x2008;" horiz-adv-x="234" />
<glyph unicode="&#x2009;" horiz-adv-x="375" />
<glyph unicode="&#x200a;" horiz-adv-x="104" />
<glyph unicode="&#x2010;" horiz-adv-x="655" d="M45 446l23 127h548l-24 -127h-547z" />
<glyph unicode="&#x2011;" horiz-adv-x="655" d="M45 446l23 127h548l-24 -127h-547z" />
<glyph unicode="&#x2012;" horiz-adv-x="655" d="M45 446l23 127h548l-24 -127h-547z" />
<glyph unicode="&#x2013;" horiz-adv-x="983" d="M45 446l23 127h876l-24 -127h-875z" />
<glyph unicode="&#x2014;" horiz-adv-x="1966" d="M45 446l23 127h1859l-24 -127h-1858z" />
<glyph unicode="&#x2018;" horiz-adv-x="505" d="M221 989q0 116 78.5 228.5t212.5 183.5l47 -68q-170 -111 -199 -248q40 2 67.5 -23.5t27.5 -66.5q0 -56 -37 -93.5t-94 -37.5q-47 0 -75 34t-28 91z" />
<glyph unicode="&#x2019;" horiz-adv-x="505" d="M168 928q170 107 199 248q-41 -2 -68 23t-27 67q0 55 37.5 92t93.5 37q47 0 75 -33.5t28 -91.5q0 -116 -78.5 -228.5t-212.5 -183.5z" />
<glyph unicode="&#x201a;" horiz-adv-x="505" d="M-39 -258q170 107 199 248q-41 -2 -67.5 23t-26.5 67q0 55 37.5 92t93.5 37q47 0 74.5 -33.5t27.5 -91.5q0 -116 -78.5 -228.5t-212.5 -183.5z" />
<glyph unicode="&#x201c;" horiz-adv-x="905" d="M221 989q0 116 78.5 228.5t212.5 183.5l47 -68q-170 -111 -199 -248q40 2 67.5 -23.5t27.5 -66.5q0 -56 -37 -93.5t-94 -37.5q-47 0 -75 34t-28 91zM621 989q0 117 78 229t212 183l47 -68q-169 -110 -198 -248q40 2 67 -23.5t27 -66.5q0 -56 -37 -93.5t-94 -37.5 q-47 0 -74.5 34t-27.5 91z" />
<glyph unicode="&#x201d;" horiz-adv-x="905" d="M168 928q170 107 199 248q-41 -2 -68 23t-27 67q0 55 37.5 92t93.5 37q47 0 75 -33.5t28 -91.5q0 -116 -78.5 -228.5t-212.5 -183.5zM567 928q170 107 199 248q-41 -2 -67.5 23t-26.5 67q0 55 37.5 92t93.5 37q47 0 74.5 -33.5t27.5 -91.5q0 -116 -78.5 -228.5 t-212.5 -183.5z" />
<glyph unicode="&#x201e;" horiz-adv-x="905" d="M-39 -258q170 107 199 248q-41 -2 -67.5 23t-26.5 67q0 55 37.5 92t93.5 37q47 0 74.5 -33.5t27.5 -91.5q0 -116 -78.5 -228.5t-212.5 -183.5zM360 -258q170 107 199 248q-41 -2 -67.5 23t-26.5 67q0 55 37.5 92t93.5 37q47 0 74.5 -33.5t27.5 -91.5q0 -117 -78 -229 t-212 -183z" />
<glyph unicode="&#x2022;" horiz-adv-x="983" d="M213 590q0 123 86 209t209 86t209 -86t86 -209t-86 -209t-209 -86t-209 86t-86 209z" />
<glyph unicode="&#x2026;" horiz-adv-x="1966" d="M141 80q0 54 38 91.5t93 37.5q43 0 71 -27t28 -71q0 -54 -38 -91.5t-93 -37.5q-43 0 -71 27t-28 71zM797 80q0 54 38 91.5t93 37.5q43 0 70.5 -27t27.5 -71q0 -54 -38 -91.5t-93 -37.5q-43 0 -70.5 27t-27.5 71zM1452 80q0 54 38 91.5t93 37.5q43 0 70.5 -27t27.5 -71 q0 -54 -38 -91.5t-93 -37.5q-43 0 -70.5 27t-27.5 71z" />
<glyph unicode="&#x202f;" horiz-adv-x="375" />
<glyph unicode="&#x2039;" horiz-adv-x="636" d="M55 469l15 84l479 451l86 -89l-418 -417l272 -406l-106 -72z" />
<glyph unicode="&#x203a;" horiz-adv-x="636" d="M6 104l418 418l-270 406l104 71l330 -448l-15 -84l-481 -451z" />
<glyph unicode="&#x205f;" horiz-adv-x="469" />
<glyph unicode="&#x20ac;" d="M70 506l18 102h139q0 84 25 193h-129l18 102h144q77 229 243.5 363.5t382.5 134.5q193 0 369 -113l-70 -112q-142 94 -295 94q-159 0 -280 -98.5t-182 -268.5h522l-19 -102h-546q-25 -109 -25 -193h539l-21 -102h-514q12 -186 108 -293t248 -107q153 0 279 66l47 -117 q-159 -80 -356 -80q-211 0 -345.5 143.5t-144.5 387.5h-155z" />
<glyph unicode="&#x2122;" horiz-adv-x="1929" d="M131 1276v100h703v-100h-289v-752h-127v752h-287zM1022 524v852h127l297 -405l297 405h127v-852h-119v678l-268 -368h-74l-270 368v-678h-117z" />
<glyph unicode="&#xe000;" horiz-adv-x="993" d="M0 0v993h993v-993h-993z" />
</font>
</defs>
</svg>
