<?xml version="1.0" standalone="no"?>
<!DOCTYPE svg PUBLIC "-//W3C//DTD SVG 1.1//EN" "http://www.w3.org/Graphics/SVG/1.1/DTD/svg11.dtd" >
<svg xmlns="http://www.w3.org/2000/svg">
<metadata></metadata>
<defs>
<font id="fs_elliot_proheavy" horiz-adv-x="1179" >
<font-face units-per-em="2048" ascent="1536" descent="-512" />
<missing-glyph horiz-adv-x="491" />
<glyph unicode="&#xfb01;" horiz-adv-x="1349" d="M35 741v273h170v47q0 179 132.5 292t342.5 113q181 0 381 -57l-62 -270q-158 49 -260 49q-79 0 -126.5 -39t-47.5 -102v-33h678v-1014h-360v741h-318v-741h-360v741h-170z" />
<glyph unicode="&#xfb02;" horiz-adv-x="1447" d="M35 741v273h170v47q0 180 136 292.5t353 112.5q221 0 549 -55v-1069q0 -37 21.5 -58.5t58.5 -21.5q26 0 84 8l37 -270q-116 -25 -211 -25q-156 0 -253 92.5t-97 237.5v869q-88 14 -160 14q-71 0 -114.5 -39.5t-43.5 -101.5v-33h209v-273h-209v-741h-360v741h-170z" />
<glyph unicode="&#xfb03;" horiz-adv-x="2058" d="M35 741v273h170v94q0 161 105 259.5t276 98.5q127 0 252 -32l-45 -267q-70 13 -119 13q-50 0 -79.5 -29t-29.5 -80v-57h350v47q0 179 132 292t342 113q180 0 380 -57l-61 -270q-155 49 -260 49q-79 0 -125.5 -38.5t-46.5 -102.5v-33h676v-1014h-361v741h-315v-741h-361 v741h-350v-741h-360v741h-170z" />
<glyph unicode="&#xfb04;" horiz-adv-x="2156" d="M35 741v273h170v94q0 161 105 259.5t276 98.5q127 0 252 -32l-45 -267q-70 13 -119 13q-50 0 -79.5 -29t-29.5 -80v-57h350v47q0 180 135.5 292.5t352.5 112.5q224 0 549 -55v-1069q0 -37 21.5 -58.5t58.5 -21.5q26 0 84 8l38 -270q-119 -25 -212 -25q-156 0 -253.5 92.5 t-97.5 237.5v869q-85 14 -157 14t-115 -39.5t-43 -101.5v-33h207v-273h-207v-741h-361v741h-350v-741h-360v741h-170z" />
<glyph horiz-adv-x="0" />
<glyph horiz-adv-x="0" />
<glyph horiz-adv-x="682" />
<glyph unicode="&#xd;" horiz-adv-x="491" />
<glyph unicode=" "  horiz-adv-x="491" />
<glyph unicode="&#x09;" horiz-adv-x="491" />
<glyph unicode="&#xa0;" horiz-adv-x="491" />
<glyph unicode="!" horiz-adv-x="610" d="M100 182q0 89 58 147t147 58q90 0 147.5 -57.5t57.5 -147.5q0 -91 -57 -149t-148 -58q-94 0 -149.5 57.5t-55.5 149.5zM125 1376h360l-30 -893h-299z" />
<glyph unicode="&#x22;" horiz-adv-x="989" d="M90 1376h332l-31 -542h-270zM567 1376h332l-31 -542h-270z" />
<glyph unicode="#" horiz-adv-x="1370" d="M33 276v273h213l53 278h-162v273h213l60 299l266 -37l-49 -262h276l58 299l266 -37l-49 -262h159v-273h-213l-53 -278h162v-273h-213l-59 -299l-267 37l49 262h-274l-59 -299l-267 37l50 262h-160zM520 549h277l53 278h-277z" />
<glyph unicode="$" d="M100 168l84 278q216 -86 375 -86q152 0 152 95q0 27 -26 45.5t-68 28.5t-96.5 23t-110.5 26t-110.5 41t-96.5 65t-68 100.5t-26 145.5q0 133 90 228t241 128v352h299v-346q140 -20 299 -80l-84 -278q-195 82 -333 82q-70 0 -107 -23t-37 -63q0 -25 26 -42t68 -26 t96.5 -21t110.5 -25t110.5 -41.5t96.5 -66.5t68 -103.5t26 -149.5q0 -138 -92 -235t-248 -130v-352h-299v346q-173 19 -340 84z" />
<glyph unicode="%" horiz-adv-x="1769" d="M55 1032q0 161 108 265t277 104q168 0 277.5 -104t109.5 -265t-109.5 -264.5t-277.5 -103.5q-169 0 -277 103.5t-108 264.5zM279 68l1032 1376l180 -135l-1032 -1377zM319 1032q0 -73 33.5 -118.5t87.5 -45.5q55 0 89 45t34 119t-34 119t-89 45q-54 0 -87.5 -45.5 t-33.5 -118.5zM942 344q0 161 109 265t278 104q167 0 276 -104t109 -265t-109 -265t-276 -104q-169 0 -278 104t-109 265zM1206 344q0 -74 34 -119t89 -45q54 0 87.5 45.5t33.5 118.5t-33.5 118.5t-87.5 45.5q-55 0 -89 -45t-34 -119z" />
<glyph unicode="&#x26;" horiz-adv-x="1368" d="M41 391q0 117 72 214t204 159q-129 138 -129 276q0 158 123 259.5t314 101.5q188 0 307 -93t119 -243q0 -235 -279 -369l180 -194q36 70 39 184h301q-9 -239 -135 -410l252 -276h-391l-94 102q-179 -127 -369 -127q-225 0 -369.5 116t-144.5 300zM379 420q0 -74 63 -124 t144 -50q85 0 157 53l-264 289q-47 -31 -73.5 -75t-26.5 -93zM510 1026q0 -59 94 -141q131 68 131 147q0 43 -30.5 70.5t-79.5 27.5q-51 0 -83 -29t-32 -75z" />
<glyph unicode="'" horiz-adv-x="512" d="M90 1376h332l-31 -542h-270z" />
<glyph unicode="(" horiz-adv-x="745" d="M106 590q0 269 96 514.5t279 443.5l254 -166q-297 -341 -297 -792q0 -452 297 -793l-254 -166q-183 196 -279 442.5t-96 516.5z" />
<glyph unicode=")" horiz-adv-x="745" d="M8 -203q299 340 299 793q0 452 -299 792l256 166q182 -196 277.5 -441.5t95.5 -516.5q0 -269 -95.5 -515.5t-277.5 -443.5z" />
<glyph unicode="*" horiz-adv-x="1042" d="M53 950l76 228l272 -88v286h240v-286l272 88l76 -228l-274 -90l170 -233l-193 -144l-170 244l-172 -244l-192 144l170 233z" />
<glyph unicode="+" d="M72 440v299h368v369h299v-369h369v-299h-369v-368h-299v368h-368z" />
<glyph unicode="," horiz-adv-x="577" d="M76 188q0 93 60 153t153 60q95 0 155 -68t60 -177q0 -142 -79 -270t-220 -214l-107 138q105 88 148 182q-76 10 -123 64.5t-47 131.5z" />
<glyph unicode="-" horiz-adv-x="655" d="M35 383v270h586v-270h-586z" />
<glyph unicode="." horiz-adv-x="577" d="M76 188q0 93 60 153t153 60t153 -60t60 -153q0 -92 -60.5 -152.5t-152.5 -60.5t-152.5 60.5t-60.5 152.5z" />
<glyph unicode="/" horiz-adv-x="786" d="M-53 -231l608 1732l285 -90l-609 -1733z" />
<glyph unicode="0" d="M41 688q0 339 142.5 526t406.5 187t406.5 -187t142.5 -526t-142.5 -526t-406.5 -187t-406.5 187t-142.5 526zM379 688q0 -200 55 -310t156 -110t156 110t55 310t-55 310t-156 110t-156 -110t-55 -310z" />
<glyph unicode="1" d="M113 1116l456 260h301v-1376h-360v1030l-277 -156z" />
<glyph unicode="2" d="M59 1255q259 146 498 146q207 0 337 -120.5t130 -309.5q0 -221 -203 -424l-260 -260h479v-287h-954v225l442 443q144 144 144 252q0 79 -53 129.5t-136 50.5q-48 0 -100 -16.5t-86.5 -35t-101.5 -57.5z" />
<glyph unicode="3" d="M43 88l113 264q188 -90 350 -90q79 0 130.5 41.5t51.5 108.5q0 73 -62.5 118t-164.5 45h-109v259h109q90 0 146.5 41t56.5 106q0 60 -41.5 96.5t-110.5 36.5q-142 0 -324 -82l-112 264q241 105 495 105q200 0 326.5 -106.5t126.5 -276.5q0 -105 -51 -185.5t-139 -119.5 q98 -37 160.5 -130t62.5 -208q0 -178 -136.5 -289t-349.5 -111q-280 0 -528 113z" />
<glyph unicode="4" d="M37 270v242l600 864h346v-833h156v-273h-156v-270h-330v270h-616zM369 543h284v411z" />
<glyph unicode="5" d="M74 104l137 265q153 -101 287 -101q96 0 152.5 45t56.5 123q0 88 -66.5 136.5t-187.5 48.5q-132 0 -281 -33v788h838v-286h-523v-224q27 2 84 2q221 0 354.5 -119.5t133.5 -318.5q0 -197 -150 -326t-383 -129q-242 0 -452 129z" />
<glyph unicode="6" d="M59 635q0 361 168 563.5t461 202.5q217 0 399 -96l-120 -256q-143 73 -265 73q-130 0 -212.5 -78.5t-92.5 -218.5q126 95 285 95q201 0 329 -126.5t128 -324.5q0 -217 -145 -355.5t-371 -138.5q-264 0 -414 175.5t-150 484.5zM414 467q0 -94 54.5 -153.5t139.5 -59.5 q86 0 142.5 57.5t56.5 143.5q0 85 -54 138.5t-139 53.5q-88 0 -144 -50.5t-56 -129.5z" />
<glyph unicode="7" d="M90 1090v286h967v-225l-486 -1151h-376l471 1090h-576z" />
<glyph unicode="8" d="M43 381q0 107 59.5 192t167.5 132q-90 45 -142 126t-52 181q0 175 142 282t372 107t372 -107t142 -282q0 -100 -52.5 -181t-142.5 -126q108 -50 168 -134t60 -190q0 -183 -150.5 -294.5t-396.5 -111.5t-396.5 111.5t-150.5 294.5zM403 403q0 -70 52.5 -113.5t134.5 -43.5 t134 43.5t52 113.5q0 121 -186 172q-187 -51 -187 -172zM422 989q0 -110 168 -155q168 45 168 155q0 62 -47.5 101.5t-120.5 39.5t-120.5 -39.5t-47.5 -101.5z" />
<glyph unicode="9" d="M41 907q0 217 145 355.5t371 138.5q264 0 413.5 -175.5t149.5 -484.5q0 -361 -167.5 -563.5t-460.5 -202.5q-216 0 -400 97l121 256q145 -74 264 -74q130 0 212.5 78.5t92.5 218.5q-124 -94 -284 -94q-201 0 -329 126t-128 324zM373 922q0 -85 53.5 -139t138.5 -54 q88 0 144.5 50.5t56.5 129.5q0 93 -55 153t-140 60q-86 0 -142 -57t-56 -143z" />
<glyph unicode=":" horiz-adv-x="610" d="M92 188q0 93 60 153t153 60t153 -60t60 -153q0 -92 -60.5 -152.5t-152.5 -60.5t-152.5 60.5t-60.5 152.5zM92 823q0 93 60 153t153 60t153 -60t60 -153q0 -92 -60.5 -152.5t-152.5 -60.5t-152.5 60.5t-60.5 152.5z" />
<glyph unicode=";" horiz-adv-x="610" d="M92 188q0 93 60 153t153 60q95 0 155 -68t60 -177q0 -142 -79 -270t-220 -214l-106 138q103 86 147 182q-76 10 -123 64.5t-47 131.5zM92 823q0 93 60 153t153 60t153 -60t60 -153q0 -92 -60.5 -152.5t-152.5 -60.5t-152.5 60.5t-60.5 152.5z" />
<glyph unicode="&#x3c;" d="M72 440v299l946 426l121 -284l-662 -291l662 -291l-121 -285z" />
<glyph unicode="=" d="M72 182v301h1036v-301h-1036zM72 696v301h1036v-301h-1036z" />
<glyph unicode="&#x3e;" d="M41 299l661 291l-661 291l121 284l946 -426v-299l-946 -426z" />
<glyph unicode="?" horiz-adv-x="976" d="M37 1270q200 131 420 131q198 0 324 -107.5t126 -275.5q0 -82 -27.5 -152t-69 -118t-83 -88.5t-75.5 -81t-42 -78.5l-4 -17h-301v45q0 65 25 120.5t60.5 94t71 73.5t60.5 73.5t25 77.5q0 59 -42.5 96t-107.5 37q-48 0 -99.5 -21.5t-125.5 -64.5zM250 188q0 90 57.5 144.5 t149.5 54.5q90 0 147.5 -54.5t57.5 -144.5t-58.5 -151.5t-146.5 -61.5q-91 0 -149 61t-58 152z" />
<glyph unicode="@" horiz-adv-x="2025" d="M57 506q0 200 73 372.5t202 294t311.5 190.5t394.5 69q202 0 375.5 -60.5t295 -166.5t190.5 -257t69 -327q0 -248 -133 -405t-344 -157q-187 0 -279 119q-131 -119 -307 -119t-289.5 126.5t-113.5 320.5t113.5 320t289.5 126q140 0 234 -82l37 62h292v-537 q0 -35 18.5 -57.5t49.5 -22.5q59 0 96 76t37 199q0 256 -176 416.5t-455 160.5q-147 0 -273.5 -49t-216 -136t-140 -210t-50.5 -266q0 -290 190.5 -475t489.5 -185q221 0 486 148l135 -234q-331 -178 -621 -178q-214 0 -396.5 68.5t-311 189.5t-201 293t-72.5 373zM862 506 q0 -76 38 -124t97 -48q53 0 86 38.5t33 96.5v74q0 59 -33 97t-86 38q-59 0 -97 -48t-38 -124z" />
<glyph unicode="A" horiz-adv-x="1417" d="M-23 0l560 1376h346l557 -1376h-375l-102 279h-506l-103 -279h-377zM553 549h311l-155 420z" />
<glyph unicode="B" horiz-adv-x="1370" d="M141 0v1376h641q206 0 335.5 -104.5t129.5 -270.5q0 -95 -46.5 -168.5t-123.5 -113.5q102 -41 160.5 -128.5t58.5 -199.5q0 -172 -135 -281.5t-346 -109.5h-674zM502 270h254q78 0 126 43.5t48 114.5q0 70 -48 113t-126 43h-254v-314zM502 825h229q69 0 112.5 38.5 t43.5 101.5t-43.5 102t-112.5 39h-229v-281z" />
<glyph unicode="C" horiz-adv-x="1341" d="M57 688q0 207 93 369.5t261 253t382 90.5q270 0 522 -162l-150 -248q-166 113 -321 113q-180 0 -292 -115.5t-112 -300.5t112 -300.5t292 -115.5q155 0 321 113l150 -248q-252 -162 -522 -162q-214 0 -382 91t-261 253.5t-93 368.5z" />
<glyph unicode="D" horiz-adv-x="1515" d="M141 0v1376h600q321 0 520 -190.5t199 -497.5q0 -305 -199.5 -496.5t-519.5 -191.5h-600zM516 287h180q167 0 274 112t107 289t-107 289.5t-274 112.5h-180v-803z" />
<glyph unicode="E" horiz-adv-x="1243" d="M141 0v1376h998v-278h-623v-258h557v-271h-557v-290h655v-279h-1030z" />
<glyph unicode="F" horiz-adv-x="1210" d="M141 0v1376h998v-286h-623v-299h557v-285h-557v-506h-375z" />
<glyph unicode="G" horiz-adv-x="1482" d="M57 688q0 155 56 287.5t154.5 226t238.5 146.5t303 53q265 0 539 -146l-136 -249q-208 108 -358 108q-190 0 -310 -119t-120 -307q0 -191 119.5 -308.5t310.5 -117.5q95 0 180 31v239h-274v273h618v-709q-290 -121 -553 -121q-223 0 -398 90.5t-272.5 253t-97.5 369.5z " />
<glyph unicode="H" horiz-adv-x="1613" d="M141 0v1376h375v-528h582v528h375v-1376h-375v561h-582v-561h-375z" />
<glyph unicode="I" horiz-adv-x="657" d="M141 0v1376h375v-1376h-375z" />
<glyph unicode="J" horiz-adv-x="944" d="M20 16l46 285q113 -25 178 -25q80 0 132 51.5t52 133.5v915h375v-952q0 -201 -130 -325t-339 -124q-154 0 -314 41z" />
<glyph unicode="K" horiz-adv-x="1429" d="M141 0v1376h361v-581l508 581h430l-586 -643l610 -733h-436l-424 514l-102 -111v-403h-361z" />
<glyph unicode="L" horiz-adv-x="1112" d="M141 0v1376h375v-1089h559v-287h-934z" />
<glyph unicode="M" horiz-adv-x="1794" d="M141 0v1376h361l395 -547l395 547h361v-1376h-344v866l-310 -428h-204l-308 428v-866h-346z" />
<glyph unicode="N" horiz-adv-x="1613" d="M141 0v1376h361l626 -866v866h345v-1376h-361l-625 866v-866h-346z" />
<glyph unicode="O" horiz-adv-x="1613" d="M57 688q0 155 55.5 287.5t154 226t238 146.5t302.5 53t303 -53t238.5 -146.5t154.5 -226t56 -287.5t-56 -287.5t-154.5 -226t-238.5 -146.5t-303 -53t-302.5 53t-238 146.5t-154 226t-55.5 287.5zM440 688q0 -185 102.5 -302.5t264.5 -117.5q163 0 266 117.5t103 302.5 t-103 302.5t-266 117.5q-162 0 -264.5 -117.5t-102.5 -302.5z" />
<glyph unicode="P" horiz-adv-x="1304" d="M141 0v1376h609q226 0 370 -133t144 -342t-144 -343t-370 -134h-248v-424h-361zM502 711h188q92 0 149.5 52.5t57.5 137.5q0 82 -57.5 135.5t-149.5 53.5h-188v-379z" />
<glyph unicode="Q" horiz-adv-x="1613" d="M57 688q0 155 55.5 287.5t154 226t238 146.5t302.5 53t303 -53t238.5 -146.5t154.5 -226t56 -287.5q0 -177 -71 -321t-198 -240l271 -193l-181 -227l-391 289q-100 -21 -182 -21q-163 0 -302.5 53t-238 146.5t-154 226t-55.5 287.5zM440 688q0 -185 102.5 -302.5 t264.5 -117.5q163 0 266 117.5t103 302.5t-103 302.5t-266 117.5q-162 0 -264.5 -117.5t-102.5 -302.5z" />
<glyph unicode="R" horiz-adv-x="1370" d="M141 0v1376h623q220 0 360 -126.5t140 -325.5q0 -149 -78 -259.5t-211 -148.5l352 -516h-405l-293 457h-127v-457h-361zM502 743h203q84 0 137 48t53 127q0 76 -53 124t-137 48h-203v-347z" />
<glyph unicode="S" horiz-adv-x="1222" d="M63 90l84 279q265 -101 435 -101q98 0 153.5 35t55.5 98q0 36 -24.5 62.5t-66 43.5t-95.5 30.5t-114 29t-119.5 34.5t-113.5 50.5t-95.5 73.5t-66 108t-24.5 150q0 186 151 302t389 116q237 0 498 -98l-84 -279q-212 84 -385 84q-93 0 -147 -33t-54 -92q0 -35 24.5 -60 t66 -40.5t95.5 -28.5t114 -27.5t119.5 -33.5t113.5 -51t95.5 -75.5t66 -111.5t24.5 -154q0 -190 -152.5 -308t-394.5 -118q-266 0 -549 115z" />
<glyph unicode="T" horiz-adv-x="1243" d="M35 1090v286h1171v-286h-397v-1090h-375v1090h-399z" />
<glyph unicode="U" horiz-adv-x="1613" d="M125 553v823h375v-809q0 -133 86 -216t221 -83q137 0 222 83t85 216v809h375v-823q0 -170 -87.5 -302t-242.5 -204t-352 -72t-352 72t-242.5 204t-87.5 302z" />
<glyph unicode="V" horiz-adv-x="1417" d="M-23 1376h392l340 -925l342 925h389l-557 -1376h-346z" />
<glyph unicode="W" horiz-adv-x="2105" d="M2 1376h375l252 -925l252 925h346l250 -925l252 925h374l-434 -1376h-364l-252 926l-250 -926h-365z" />
<glyph unicode="X" horiz-adv-x="1433" d="M-18 0l495 705l-471 671h412l299 -438l299 438h414l-474 -671l498 -705h-422l-315 471l-316 -471h-419z" />
<glyph unicode="Y" horiz-adv-x="1298" d="M-39 1376h406l282 -512l283 512h405l-499 -844v-532h-377v532z" />
<glyph unicode="Z" horiz-adv-x="1320" d="M63 0v211l689 879h-664v286h1145v-211l-688 -878h712v-287h-1194z" />
<glyph unicode="[" horiz-adv-x="745" d="M143 -293v1766h564v-287h-234v-1192h234v-287h-564z" />
<glyph unicode="\" horiz-adv-x="786" d="M-53 1411l284 90l609 -1732l-285 -91z" />
<glyph unicode="]" horiz-adv-x="745" d="M39 -6h231v1192h-231v287h563v-1766h-563v287z" />
<glyph unicode="^" d="M14 399l426 977h299l426 -977l-284 -104l-291 676l-291 -676z" />
<glyph unicode="_" horiz-adv-x="983" d="M0 -127h983v-270h-983v270z" />
<glyph unicode="`" horiz-adv-x="491" d="M-90 1317l158 225l409 -287l-135 -194z" />
<glyph unicode="a" horiz-adv-x="1155" d="M55 305q0 162 124.5 252t346.5 90q80 0 174 -16v8q0 59 -50 97t-126 38q-146 0 -327 -74l-91 248q242 90 463 90q209 0 335 -112t126 -295v-334q0 -23 14 -37t37 -14q19 0 47 4l23 -258q-87 -17 -170 -17q-75 0 -133 30.5t-92 86.5q-69 -56 -156 -86.5t-172 -30.5 q-164 0 -268.5 92t-104.5 238zM393 328q0 -45 37 -75t94 -30q76 0 126 48t50 122v37q-72 14 -129 14q-80 0 -129 -31.5t-49 -84.5z" />
<glyph unicode="b" horiz-adv-x="1265" d="M106 0v1442h361v-500q116 96 272 96q207 0 339 -148.5t132 -383.5q0 -233 -132 -382t-339 -149q-185 0 -301 119l-45 -94h-287zM461 453q0 -85 50.5 -140t131.5 -55q88 0 144.5 69.5t56.5 178.5q0 110 -56.5 180t-144.5 70q-81 0 -131.5 -55t-50.5 -142v-106z" />
<glyph unicode="c" horiz-adv-x="1042" d="M55 506q0 233 158 382.5t405 149.5q219 0 416 -123l-143 -239q-120 76 -221 76q-109 0 -177.5 -68.5t-68.5 -177.5t68.5 -176.5t177.5 -67.5q101 0 221 76l143 -242q-198 -121 -416 -121q-247 0 -405 149.5t-158 381.5z" />
<glyph unicode="d" horiz-adv-x="1265" d="M55 506q0 235 132 383.5t339 148.5q157 0 273 -96v500h360v-1442h-287l-45 94q-116 -119 -301 -119q-207 0 -339 149t-132 382zM424 506q0 -109 55.5 -178.5t143.5 -69.5q81 0 131.5 55t50.5 140v106q0 87 -50.5 142t-131.5 55q-88 0 -143.5 -70t-55.5 -180z" />
<glyph unicode="e" horiz-adv-x="1155" d="M55 506q0 235 153 383.5t394 148.5q227 0 370.5 -143.5t143.5 -372.5q0 -56 -6 -108h-694q20 -80 91.5 -127t172.5 -47q123 0 281 82l106 -242q-225 -105 -432 -105q-257 0 -418.5 148.5t-161.5 382.5zM416 625h354q-9 68 -55 108.5t-113 40.5q-70 0 -120.5 -40.5 t-65.5 -108.5z" />
<glyph unicode="f" horiz-adv-x="811" d="M35 741v273h170v94q0 161 105 259.5t276 98.5q127 0 252 -32l-45 -267q-70 13 -119 13q-50 0 -79.5 -29t-29.5 -80v-57h209v-273h-209v-741h-360v741h-170z" />
<glyph unicode="g" horiz-adv-x="1265" d="M55 506q0 235 132 383.5t339 148.5q183 0 301 -118l45 94h287v-961q0 -219 -167 -361.5t-423 -142.5q-225 0 -463 97l99 264q183 -82 334 -82q116 0 188 58.5t72 152.5v33q-118 -97 -273 -97q-207 0 -339 149t-132 382zM424 506q0 -109 55.5 -178.5t143.5 -69.5 q81 0 131.5 55t50.5 140v106q0 87 -50.5 142t-131.5 55q-88 0 -143.5 -70t-55.5 -180z" />
<glyph unicode="h" horiz-adv-x="1265" d="M106 0v1442h361v-516q121 112 303 112q180 0 293 -111t113 -286v-641h-361v582q0 70 -45.5 115.5t-114.5 45.5q-83 0 -135.5 -55.5t-52.5 -144.5v-543h-361z" />
<glyph unicode="i" horiz-adv-x="575" d="M82 1280q0 91 58 149t147 58q91 0 149 -58t58 -149q0 -89 -58 -147t-149 -58q-89 0 -147 58t-58 147zM106 0v1014h361v-1014h-361z" />
<glyph unicode="j" horiz-adv-x="591" d="M-150 -418l46 266q68 -12 118 -12q51 0 80 29t29 80v1069h360v-1106q0 -161 -104.5 -260t-274.5 -99q-122 0 -254 33zM98 1280q0 91 58 149t147 58q91 0 149 -58t58 -149q0 -89 -58 -147t-149 -58q-89 0 -147 58t-58 147z" />
<glyph unicode="k" horiz-adv-x="1132" d="M106 0v1442h347v-795l292 367h406l-416 -475l432 -539h-413l-250 328l-51 -56v-272h-347z" />
<glyph unicode="l" horiz-adv-x="673" d="M106 305v1137h361v-1100q0 -37 22.5 -58.5t59.5 -21.5q26 0 84 8l37 -270q-116 -25 -211 -25q-162 0 -257.5 89.5t-95.5 240.5z" />
<glyph unicode="m" horiz-adv-x="1908" d="M106 0v1014h287l45 -103q136 127 316 127q101 0 183 -40t130 -111q168 151 360 151q172 0 281 -107t109 -274v-657h-361v598q0 65 -39.5 105t-103.5 40q-75 0 -122.5 -51t-47.5 -133v-559h-361v598q0 64 -40 104.5t-103 40.5q-76 0 -124 -51t-48 -133v-559h-361z" />
<glyph unicode="n" horiz-adv-x="1265" d="M106 0v1014h287l45 -111q126 135 332 135q180 0 293 -111t113 -286v-641h-361v582q0 70 -45.5 115.5t-114.5 45.5q-83 0 -135.5 -55.5t-52.5 -144.5v-543h-361z" />
<glyph unicode="o" horiz-adv-x="1265" d="M55 506q0 234 162 383t416 149q255 0 416 -148.5t161 -383.5q0 -234 -161 -382.5t-416 -148.5q-254 0 -416 149t-162 382zM424 506q0 -110 58.5 -181t150.5 -71t151.5 71t59.5 181q0 112 -59 183t-152 71q-92 0 -150.5 -71t-58.5 -183z" />
<glyph unicode="p" horiz-adv-x="1265" d="M106 -426v1440h287l45 -94q118 118 301 118q207 0 339 -148.5t132 -383.5q0 -233 -132 -382t-339 -149q-154 0 -272 97v-498h-361zM461 453q0 -85 50.5 -140t131.5 -55q88 0 144.5 69.5t56.5 178.5q0 110 -56.5 180t-144.5 70q-81 0 -131.5 -55t-50.5 -142v-106z" />
<glyph unicode="q" horiz-adv-x="1265" d="M55 506q0 235 132 383.5t339 148.5q183 0 301 -118l45 94h287v-1440h-360v498q-118 -97 -273 -97q-207 0 -339 149t-132 382zM424 506q0 -109 55.5 -178.5t143.5 -69.5q81 0 131.5 55t50.5 140v106q0 87 -50.5 142t-131.5 55q-88 0 -143.5 -70t-55.5 -180z" />
<glyph unicode="r" horiz-adv-x="856" d="M106 0v1014h287l45 -127q46 68 120 105.5t163 37.5q49 0 117 -14l-31 -285q-66 12 -117 12q-102 0 -162.5 -67.5t-60.5 -177.5v-498h-361z" />
<glyph unicode="s" horiz-adv-x="974" d="M55 57l76 256q177 -73 326 -73q52 0 80 19t28 52q0 22 -21.5 37.5t-57 23.5t-80.5 18.5t-92 21.5t-92 34.5t-80.5 55t-57 85.5t-21.5 124q0 141 119 234t305 93q187 0 400 -73l-76 -256q-170 65 -295 65q-47 0 -73.5 -17t-26.5 -46q0 -24 28 -39t72 -24t98 -19t108 -31.5 t98 -53.5t72 -92t28 -141q0 -147 -121 -241.5t-312 -94.5q-205 0 -432 82z" />
<glyph unicode="t" horiz-adv-x="876" d="M35 741v273h170v295h360v-295h242v-273h-242v-370q0 -51 29.5 -80t79.5 -29q54 0 119 12l45 -266q-129 -33 -252 -33q-170 0 -275.5 99t-105.5 260v407h-170z" />
<glyph unicode="u" horiz-adv-x="1265" d="M90 373v641h361v-582q0 -72 45 -118t116 -46q82 0 134.5 56t52.5 145v545h360v-1014h-287l-45 111q-124 -136 -331 -136q-179 0 -292.5 110.5t-113.5 287.5z" />
<glyph unicode="v" horiz-adv-x="1134" d="M-8 1014h377l198 -608l199 608h377l-410 -1014h-332z" />
<glyph unicode="w" horiz-adv-x="1658" d="M8 1014h361l147 -606l148 606h331l148 -606l147 606h361l-328 -1014h-346l-148 606l-147 -606h-346z" />
<glyph unicode="x" horiz-adv-x="1134" d="M-20 0l354 518l-338 496h397l174 -273l174 273h398l-338 -496l354 -518h-405l-183 297l-182 -297h-405z" />
<glyph unicode="y" horiz-adv-x="1134" d="M-8 1014h377l198 -608l199 608h377l-432 -1092q-144 -373 -457 -373q-80 0 -174 21l45 278q53 -12 92 -12q60 0 100 31.5t68 101.5l18 45z" />
<glyph unicode="z" horiz-adv-x="1040" d="M55 0v197l447 544h-430v273h897v-197l-449 -547h465v-270h-930z" />
<glyph unicode="{" horiz-adv-x="745" d="M8 446v287h33q58 0 97.5 33.5t39.5 83.5q0 42 -8 120.5t-8 121.5q0 166 119 273.5t303 107.5h123v-287h-33q-76 0 -125 -48t-49 -120q0 -34 5 -99.5t5 -99.5q0 -84 -42.5 -144t-121.5 -85q79 -25 121.5 -85.5t42.5 -144.5q0 -34 -5 -99t-5 -99q0 -72 49 -120t125 -48h33 v-287h-123q-184 0 -303 107.5t-119 273.5q0 43 8 121.5t8 120.5q0 50 -39.5 83t-97.5 33h-33z" />
<glyph unicode="|" horiz-adv-x="491" d="M96 -459v1966h299v-1966h-299z" />
<glyph unicode="}" horiz-adv-x="745" d="M39 -6h33q75 0 124.5 48t49.5 120q0 34 -5 99t-5 99q0 84 42 144.5t119 85.5q-77 25 -119 85t-42 144q0 34 5 99.5t5 99.5q0 72 -49.5 120t-124.5 48h-33v287h123q184 0 303 -107.5t119 -273.5q0 -43 -9.5 -121.5t-9.5 -120.5q0 -50 39.5 -83.5t97.5 -33.5h33v-287h-33 q-58 0 -97.5 -33t-39.5 -83q0 -42 9.5 -120.5t9.5 -121.5q0 -166 -119 -273.5t-303 -107.5h-123v287z" />
<glyph unicode="~" d="M12 662q169 126 350 126q65 0 130 -15.5t109 -33.5t103 -33.5t113 -15.5q51 0 95.5 19.5t97.5 64.5l157 -256q-171 -127 -350 -127q-66 0 -131 15.5t-109 33.5t-102.5 33.5t-112.5 15.5q-94 0 -192 -83z" />
<glyph unicode="&#xa1;" horiz-adv-x="610" d="M100 831q0 89 58 147t147 58q94 0 149.5 -57t55.5 -148q0 -89 -57 -146.5t-148 -57.5q-89 0 -147 57.5t-58 146.5zM125 -362l31 892h299l30 -892h-360z" />
<glyph unicode="&#xa2;" d="M123 688q0 186 104 322t279 184v313h299v-299q155 -21 297 -110l-144 -242q-126 78 -219 78q-109 0 -178 -68.5t-69 -177.5t69 -177.5t178 -68.5q93 0 219 78l144 -241q-142 -89 -297 -113v-297h-299v313q-175 48 -279 184t-104 322z" />
<glyph unicode="&#xa3;" d="M104 0v279h170v290h-137v271h137v121q0 193 136 316.5t344 123.5q156 0 366 -72l-90 -264q-108 43 -203 43q-78 0 -128 -49.5t-50 -126.5v-92h322v-271h-322v-290h459v-279h-1004z" />
<glyph unicode="&#xa4;" d="M25 334l155 158q-39 89 -39 196q0 106 39 195l-155 159l211 211l157 -157q87 41 197 41q107 0 194 -41l160 157l211 -211l-158 -159q41 -87 41 -195q0 -109 -41 -196l158 -158l-211 -211l-160 156q-89 -39 -194 -39q-108 0 -197 39l-157 -156zM412 688q0 -78 50 -127 t128 -49t128 49t50 127t-50 128t-128 50t-128 -50t-50 -128z" />
<glyph unicode="&#xa5;" d="M-49 1376h391l248 -477l248 477h391l-361 -598h174v-239h-264v-84h264v-242h-264v-213h-377v213h-264v242h264v84h-264v239h174z" />
<glyph unicode="&#xa6;" horiz-adv-x="491" d="M96 -360v786h299v-786h-299zM96 623v786h299v-786h-299z" />
<glyph unicode="&#xa7;" horiz-adv-x="1138" d="M63 -258l82 278q221 -79 377 -79q74 0 113 25t39 71q0 27 -26 47t-68 31.5t-96.5 26.5t-110.5 30.5t-110.5 45t-96.5 67t-68 100t-26 141.5q0 158 125 254q-93 90 -93 240q0 168 134.5 274.5t347.5 106.5q207 0 448 -90l-82 -279q-183 76 -338 76q-70 0 -106.5 -23.5 t-36.5 -64.5q0 -28 33.5 -47.5t86.5 -32.5t117.5 -28.5t129 -42.5t117.5 -66.5t86.5 -109.5t33.5 -163q0 -154 -121 -256q88 -91 88 -237q0 -177 -136 -283t-353 -106q-242 0 -490 94zM438 545q0 -27 15 -47.5t48.5 -36t62.5 -24t81 -21.5q28 15 45 41t17 55q0 22 -11 40 t-26.5 30t-44.5 24t-51.5 18.5t-61.5 16.5q-34 -14 -54 -39.5t-20 -56.5z" />
<glyph unicode="&#xa8;" horiz-adv-x="491" d="M-178 1280q0 82 50 133t132 51t132 -51t50 -133t-50 -132t-132 -50t-132 50t-50 132zM305 1280q0 82 50 133t132 51t132.5 -51t50.5 -133t-50.5 -132t-132.5 -50t-132 50t-50 132z" />
<glyph unicode="&#xa9;" horiz-adv-x="1703" d="M98 688q0 218 96 390t268 268t390 96t390 -96t268 -268t96 -390t-96 -390t-268 -268t-390 -96t-390 96t-268 268t-96 390zM281 688q0 -252 159.5 -411.5t411.5 -159.5t411.5 159.5t159.5 411.5t-159.5 412t-411.5 160t-411.5 -160t-159.5 -412zM416 688q0 194 128 318 t333 124q181 0 337 -100l-110 -182q-92 63 -191 63t-161 -62t-62 -161t62 -161t161 -62t191 63l110 -182q-156 -100 -337 -100q-205 0 -333 124t-128 318z" />
<glyph unicode="&#xaa;" horiz-adv-x="821" d="M35 418v182h751v-182h-751zM49 924q0 101 86.5 160t235.5 59q49 0 104 -10q0 39 -28 64.5t-82 25.5q-100 0 -222 -49l-59 174q171 59 307 59q149 0 235.5 -76t86.5 -207v-194q0 -13 8 -22t20 -9q17 0 27 2l18 -184q-70 -12 -118 -12q-107 0 -154 75q-85 -75 -213 -75 q-109 0 -180.5 62t-71.5 157zM295 938q0 -25 22 -42t54 -17q45 0 74.5 25.5t29.5 66.5v26q-40 7 -76 7q-49 0 -76.5 -17.5t-27.5 -48.5z" />
<glyph unicode="&#xab;" horiz-adv-x="1280" d="M51 442v152l408 459l211 -166l-273 -369l273 -366l-211 -166zM623 442v152l407 459l211 -166l-272 -369l272 -366l-211 -166z" />
<glyph unicode="&#xac;" d="M72 440v299h1036v-667h-301v368h-735z" />
<glyph unicode="&#xad;" horiz-adv-x="655" d="M41 383v270h586v-270h-586z" />
<glyph unicode="&#xae;" horiz-adv-x="1703" d="M98 688q0 218 96 390t268 268t390 96t390 -96t268 -268t96 -390t-96 -390t-268 -268t-390 -96t-390 96t-268 268t-96 390zM281 688q0 -252 159.5 -411.5t411.5 -159.5t411.5 159.5t159.5 411.5t-159.5 412t-411.5 160t-411.5 -160t-159.5 -412zM502 262v852h403 q140 0 229 -80t89 -207q0 -90 -45 -157.5t-119 -94.5l192 -313h-280l-150 273h-69v-273h-250zM752 727h118q45 0 72 25t27 69q0 42 -27 67t-72 25h-118v-186z" />
<glyph unicode="&#xaf;" horiz-adv-x="491" d="M-92 1161v240h676v-240h-676z" />
<glyph unicode="&#xb0;" horiz-adv-x="714" d="M63 1106q0 128 83 211.5t212 83.5q128 0 211.5 -83.5t83.5 -211.5q0 -129 -83.5 -212t-211.5 -83q-129 0 -212 83t-83 212zM252 1106q0 -47 30 -77t76 -30t75.5 30t29.5 77q0 46 -29.5 75t-75.5 29q-47 0 -76.5 -29t-29.5 -75z" />
<glyph unicode="&#xb1;" d="M72 0v301h1036v-301h-1036zM72 745v302h368v368h299v-368h369v-302h-369v-366h-299v366h-368z" />
<glyph unicode="&#xb2;" horiz-adv-x="710" d="M16 1563q164 92 318 92q133 0 216 -77t83 -196q0 -138 -121 -256l-135 -135h266v-205h-604v162l256 258q82 82 82 135q0 43 -26 69t-70 26q-66 0 -168 -64z" />
<glyph unicode="&#xb3;" horiz-adv-x="710" d="M6 844l80 180q116 -53 205 -53q43 0 70.5 21.5t27.5 56.5q0 38 -32 63t-83 25h-81v172h81q45 0 73 21.5t28 53.5q0 31 -21 50.5t-57 19.5q-84 0 -191 -49l-79 182q165 68 319 68q127 0 208 -68t81 -174q0 -63 -27 -111t-78 -73q56 -25 90.5 -81t34.5 -126 q0 -110 -87 -181t-222 -71q-176 0 -340 74z" />
<glyph unicode="&#xb4;" horiz-adv-x="491" d="M45 1255l410 287l155 -225l-430 -256z" />
<glyph unicode="&#xb5;" horiz-adv-x="1314" d="M106 -426v1440h361v-582q0 -72 45.5 -118t116.5 -46q82 0 134 56t52 145v545h361v-701q0 -23 14 -37t37 -14q15 0 43 4l26 -274q-90 -17 -170 -17q-85 0 -150 37t-99 103q-56 -65 -125 -98t-136 -33q-88 0 -149 24v-434h-361z" />
<glyph unicode="&#xb6;" horiz-adv-x="1265" d="M41 909q0 205 143.5 336t370.5 131h569v-1704h-301v1403h-198v-635h-70q-227 0 -370.5 131.5t-143.5 337.5z" />
<glyph unicode="&#xb7;" horiz-adv-x="577" d="M76 518q0 93 60 153t153 60t153 -60t60 -153q0 -92 -60.5 -152.5t-152.5 -60.5t-152.5 60.5t-60.5 152.5z" />
<glyph unicode="&#xb8;" horiz-adv-x="491" d="M-25 -446l58 196q83 -26 129 -26q29 0 47 13.5t18 35.5q0 21 -24 34t-64 13h-30l32 180h242l-12 -66q66 -20 104.5 -73t38.5 -125q0 -100 -87 -161.5t-228 -61.5q-117 0 -224 41z" />
<glyph unicode="&#xb9;" horiz-adv-x="591" d="M-16 1475l288 163h213v-852h-258v603l-153 -84z" />
<glyph unicode="&#xba;" horiz-adv-x="884" d="M49 1057q0 154 110.5 252t282.5 98q173 0 283.5 -98t110.5 -252q0 -155 -110.5 -253.5t-283.5 -98.5q-172 0 -282.5 98.5t-110.5 253.5zM68 418v182h749v-182h-749zM322 1057q0 -66 33 -107t87 -41t88.5 41t34.5 107q0 65 -34.5 106t-88.5 41t-87 -41t-33 -106z" />
<glyph unicode="&#xbb;" horiz-adv-x="1280" d="M39 152l274 366l-274 369l211 166l407 -459v-152l-407 -456zM610 152l275 366l-275 369l211 166l408 -459v-152l-408 -456z" />
<glyph unicode="&#xbc;" horiz-adv-x="1966" d="M80 1212l289 164h213v-852h-258v602l-154 -84zM377 68l1032 1376l180 -135l-1032 -1377zM1223 158v180l366 514h248v-510h86v-184h-86v-158h-229v158h-385zM1442 342h166v236z" />
<glyph unicode="&#xbd;" horiz-adv-x="1966" d="M80 1212l289 164h213v-852h-258v602l-154 -84zM377 68l1032 1376l180 -135l-1032 -1377zM1233 776q164 92 317 92q133 0 216 -76.5t83 -195.5q0 -139 -120 -256l-136 -135h267v-205h-605v162l256 258q82 82 82 135q0 43 -26 68.5t-70 25.5q-68 0 -168 -63z" />
<glyph unicode="&#xbe;" horiz-adv-x="1966" d="M43 582l80 180q116 -53 205 -53q43 0 70.5 21t27.5 56q0 38 -32 63t-83 25h-82v173h82q45 0 73 21.5t28 53.5q0 31 -21 50.5t-57 19.5q-84 0 -191 -49l-80 182q165 68 320 68q127 0 208 -68t81 -174q0 -63 -27 -111t-78 -73q56 -25 90.5 -81t34.5 -126q0 -110 -87 -181 t-222 -71q-176 0 -340 74zM377 68l1032 1376l180 -135l-1032 -1377zM1223 158v180l366 514h248v-510h86v-184h-86v-158h-229v158h-385zM1442 342h166v236z" />
<glyph unicode="&#xbf;" horiz-adv-x="845" d="M53 -6q0 82 27.5 152.5t69 118.5t83 88.5t75.5 81.5t42 79l4 16h301v-47q0 -64 -25 -119.5t-60.5 -94t-70.5 -73t-60 -72.5t-25 -77q0 -61 42 -98t107 -37q33 0 73 13.5t69.5 28t82.5 44.5l136 -256q-196 -129 -420 -129q-198 0 -324.5 107.5t-126.5 273.5zM299 831 q0 89 58 147t149 58q89 0 147 -58t58 -147t-58 -146.5t-147 -57.5q-91 0 -149 57.5t-58 146.5z" />
<glyph unicode="&#xc0;" horiz-adv-x="1417" d="M-23 0l560 1376h346l557 -1376h-375l-102 279h-506l-103 -279h-377zM373 1679l157 226l410 -287l-135 -195zM553 549h311l-155 420z" />
<glyph unicode="&#xc1;" horiz-adv-x="1417" d="M-23 0l560 1376h346l557 -1376h-375l-102 279h-506l-103 -279h-377zM508 1618l410 287l155 -226l-430 -256zM553 549h311l-155 420z" />
<glyph unicode="&#xc2;" horiz-adv-x="1417" d="M-23 0l560 1376h346l557 -1376h-375l-102 279h-506l-103 -279h-377zM342 1589l260 246h213l260 -246l-151 -166l-215 170l-215 -170zM553 549h311l-155 420z" />
<glyph unicode="&#xc3;" horiz-adv-x="1417" d="M-23 0l560 1376h346l557 -1376h-375l-102 279h-506l-103 -279h-377zM328 1550q15 113 83 180.5t167 67.5q49 0 95.5 -17t81 -33.5t54.5 -16.5q48 0 70 67l211 -61q-15 -113 -83 -180.5t-167 -67.5q-49 0 -96 16.5t-81.5 33.5t-54.5 17q-53 0 -69 -67zM553 549h311 l-155 420z" />
<glyph unicode="&#xc4;" horiz-adv-x="1417" d="M-23 0l560 1376h346l557 -1376h-375l-102 279h-506l-103 -279h-377zM287 1642q0 82 50.5 133.5t131.5 51.5t131.5 -51.5t50.5 -133.5t-50 -132t-132 -50t-132 50t-50 132zM553 549h311l-155 420zM770 1642q0 82 50.5 133.5t131.5 51.5q82 0 132.5 -51.5t50.5 -133.5 t-50.5 -132t-132.5 -50t-132 50t-50 132z" />
<glyph unicode="&#xc5;" horiz-adv-x="1417" d="M-23 0l560 1376h346l557 -1376h-375l-102 279h-506l-103 -279h-377zM469 1642q0 100 67 163t173 63t172.5 -63t66.5 -163q0 -98 -66.5 -160.5t-172.5 -62.5t-173 62.5t-67 160.5zM553 549h311l-155 420zM635 1642q0 -32 20.5 -51.5t53.5 -19.5q32 0 52.5 19.5t20.5 51.5 q0 34 -20 54t-53 20t-53.5 -20.5t-20.5 -53.5z" />
<glyph unicode="&#xc6;" horiz-adv-x="2025" d="M-86 0l860 1376h1147v-278h-621v-258h555v-271h-555v-290h654v-279h-1014v279h-442l-164 -279h-420zM653 549h287v498z" />
<glyph unicode="&#xc7;" horiz-adv-x="1341" d="M57 688q0 207 93 369.5t261 253t382 90.5q270 0 522 -162l-150 -248q-166 113 -321 113q-180 0 -292 -115.5t-112 -300.5t112 -300.5t292 -115.5q155 0 321 113l150 -248q-197 -128 -414 -153l-8 -50q67 -20 105 -73t38 -125q0 -100 -86 -161.5t-227 -61.5 q-116 0 -223 41l55 196q83 -26 131 -26q29 0 47.5 13.5t18.5 35.5q0 20 -24.5 33.5t-63.5 13.5h-33l31 168q-273 38 -439 229t-166 471z" />
<glyph unicode="&#xc8;" horiz-adv-x="1243" d="M141 0v1376h998v-278h-623v-258h557v-271h-557v-290h655v-279h-1030zM301 1679l158 226l409 -287l-135 -195z" />
<glyph unicode="&#xc9;" horiz-adv-x="1243" d="M141 0v1376h998v-278h-623v-258h557v-271h-557v-290h655v-279h-1030zM436 1618l410 287l155 -226l-430 -256z" />
<glyph unicode="&#xca;" horiz-adv-x="1243" d="M141 0v1376h998v-278h-623v-258h557v-271h-557v-290h655v-279h-1030zM270 1589l260 246h213l261 -246l-152 -166l-215 170l-215 -170z" />
<glyph unicode="&#xcb;" horiz-adv-x="1243" d="M141 0v1376h998v-278h-623v-258h557v-271h-557v-290h655v-279h-1030zM213 1642q0 82 50.5 133.5t131.5 51.5q82 0 132.5 -51.5t50.5 -133.5t-50.5 -132t-132.5 -50t-132 50t-50 132zM696 1642q0 82 50.5 133.5t132.5 51.5q81 0 131.5 -51.5t50.5 -133.5t-50 -132 t-132 -50t-132.5 50t-50.5 132z" />
<glyph unicode="&#xcc;" horiz-adv-x="657" d="M-6 1679l158 226l409 -287l-135 -195zM141 0v1376h375v-1376h-375z" />
<glyph unicode="&#xcd;" horiz-adv-x="657" d="M129 1618l410 287l155 -226l-430 -256zM141 0v1376h375v-1376h-375z" />
<glyph unicode="&#xce;" horiz-adv-x="657" d="M-37 1589l260 246h213l260 -246l-151 -166l-215 170l-215 -170zM141 0v1376h375v-1376h-375z" />
<glyph unicode="&#xcf;" horiz-adv-x="657" d="M-94 1642q0 82 50.5 133.5t131.5 51.5t131.5 -51.5t50.5 -133.5t-50 -132t-132 -50t-132 50t-50 132zM141 0v1376h375v-1376h-375zM389 1642q0 82 50.5 133.5t131.5 51.5q82 0 132.5 -51.5t50.5 -133.5t-50.5 -132t-132.5 -50t-132 50t-50 132z" />
<glyph unicode="&#xd0;" horiz-adv-x="1548" d="M35 569v271h139v536h600q321 0 520 -190.5t199 -497.5q0 -305 -199.5 -496.5t-519.5 -191.5h-600v569h-139zM535 287h210q166 0 272.5 112t106.5 289t-106.5 289.5t-272.5 112.5h-210v-250h276v-271h-276v-282z" />
<glyph unicode="&#xd1;" horiz-adv-x="1613" d="M141 0v1376h361l626 -866v866h345v-1376h-361l-625 866v-866h-346zM426 1550q15 113 83 180.5t167 67.5q49 0 95.5 -17t81 -33.5t54.5 -16.5q48 0 70 67l211 -61q-15 -113 -83 -180.5t-167 -67.5q-49 0 -95.5 16.5t-81 33.5t-54.5 17q-54 0 -70 -67z" />
<glyph unicode="&#xd2;" horiz-adv-x="1613" d="M57 688q0 155 55.5 287.5t154 226t238 146.5t302.5 53t303 -53t238.5 -146.5t154.5 -226t56 -287.5t-56 -287.5t-154.5 -226t-238.5 -146.5t-303 -53t-302.5 53t-238 146.5t-154 226t-55.5 287.5zM440 688q0 -185 102.5 -302.5t264.5 -117.5q163 0 266 117.5t103 302.5 t-103 302.5t-266 117.5q-162 0 -264.5 -117.5t-102.5 -302.5zM471 1679l158 226l409 -287l-135 -195z" />
<glyph unicode="&#xd3;" horiz-adv-x="1613" d="M57 688q0 155 55.5 287.5t154 226t238 146.5t302.5 53t303 -53t238.5 -146.5t154.5 -226t56 -287.5t-56 -287.5t-154.5 -226t-238.5 -146.5t-303 -53t-302.5 53t-238 146.5t-154 226t-55.5 287.5zM440 688q0 -185 102.5 -302.5t264.5 -117.5q163 0 266 117.5t103 302.5 t-103 302.5t-266 117.5q-162 0 -264.5 -117.5t-102.5 -302.5zM606 1618l410 287l155 -226l-430 -256z" />
<glyph unicode="&#xd4;" horiz-adv-x="1613" d="M57 688q0 155 55.5 287.5t154 226t238 146.5t302.5 53t303 -53t238.5 -146.5t154.5 -226t56 -287.5t-56 -287.5t-154.5 -226t-238.5 -146.5t-303 -53t-302.5 53t-238 146.5t-154 226t-55.5 287.5zM440 688q0 -185 102.5 -302.5t264.5 -117.5q163 0 266 117.5t103 302.5 t-103 302.5t-266 117.5q-162 0 -264.5 -117.5t-102.5 -302.5zM440 1589l260 246h213l261 -246l-152 -166l-215 170l-215 -170z" />
<glyph unicode="&#xd5;" horiz-adv-x="1613" d="M57 688q0 155 55.5 287.5t154 226t238 146.5t302.5 53t303 -53t238.5 -146.5t154.5 -226t56 -287.5t-56 -287.5t-154.5 -226t-238.5 -146.5t-303 -53t-302.5 53t-238 146.5t-154 226t-55.5 287.5zM426 1550q15 113 83 180.5t167 67.5q49 0 95.5 -17t81 -33.5t54.5 -16.5 q48 0 70 67l211 -61q-15 -113 -83 -180.5t-167 -67.5q-49 0 -95.5 16.5t-81 33.5t-54.5 17q-54 0 -70 -67zM440 688q0 -185 102.5 -302.5t264.5 -117.5q163 0 266 117.5t103 302.5t-103 302.5t-266 117.5q-162 0 -264.5 -117.5t-102.5 -302.5z" />
<glyph unicode="&#xd6;" horiz-adv-x="1613" d="M57 688q0 155 55.5 287.5t154 226t238 146.5t302.5 53t303 -53t238.5 -146.5t154.5 -226t56 -287.5t-56 -287.5t-154.5 -226t-238.5 -146.5t-303 -53t-302.5 53t-238 146.5t-154 226t-55.5 287.5zM383 1642q0 82 50.5 133.5t131.5 51.5q82 0 132.5 -51.5t50.5 -133.5 t-50.5 -132t-132.5 -50t-132 50t-50 132zM440 688q0 -185 102.5 -302.5t264.5 -117.5q163 0 266 117.5t103 302.5t-103 302.5t-266 117.5q-162 0 -264.5 -117.5t-102.5 -302.5zM866 1642q0 82 50.5 133.5t132.5 51.5q81 0 131.5 -51.5t50.5 -133.5t-50 -132t-132 -50 t-132.5 50t-50.5 132z" />
<glyph unicode="&#xd7;" d="M72 283l305 307l-305 307l211 211l307 -305l307 305l211 -211l-305 -307l305 -307l-211 -211l-307 305l-307 -305z" />
<glyph unicode="&#xd8;" horiz-adv-x="1613" d="M57 688q0 155 55.5 287.5t153.5 226t237.5 146.5t303.5 53q189 0 346 -74l113 152l170 -129l-103 -138q108 -96 167 -230t59 -294q0 -155 -55.5 -287.5t-154 -226t-238.5 -146.5t-304 -53q-187 0 -348 74l-111 -151l-170 129l101 135q-107 96 -164.5 230.5t-57.5 295.5z M410 688q0 -151 69 -258l494 655q-73 37 -166 37q-177 0 -287 -121t-110 -313zM641 289q75 -35 166 -35q177 0 287 121t110 313q0 144 -71 258z" />
<glyph unicode="&#xd9;" horiz-adv-x="1613" d="M125 553v823h375v-809q0 -133 86 -216t221 -83q137 0 222 83t85 216v809h375v-823q0 -170 -87.5 -302t-242.5 -204t-352 -72t-352 72t-242.5 204t-87.5 302zM471 1679l158 226l409 -287l-135 -195z" />
<glyph unicode="&#xda;" horiz-adv-x="1613" d="M125 553v823h375v-809q0 -133 86 -216t221 -83q137 0 222 83t85 216v809h375v-823q0 -170 -87.5 -302t-242.5 -204t-352 -72t-352 72t-242.5 204t-87.5 302zM606 1618l410 287l155 -226l-430 -256z" />
<glyph unicode="&#xdb;" horiz-adv-x="1613" d="M125 553v823h375v-809q0 -133 86 -216t221 -83q137 0 222 83t85 216v809h375v-823q0 -170 -87.5 -302t-242.5 -204t-352 -72t-352 72t-242.5 204t-87.5 302zM440 1589l260 246h213l261 -246l-152 -166l-215 170l-215 -170z" />
<glyph unicode="&#xdc;" horiz-adv-x="1613" d="M125 553v823h375v-809q0 -133 86 -216t221 -83q137 0 222 83t85 216v809h375v-823q0 -170 -87.5 -302t-242.5 -204t-352 -72t-352 72t-242.5 204t-87.5 302zM383 1642q0 82 50.5 133.5t131.5 51.5q82 0 132.5 -51.5t50.5 -133.5t-50.5 -132t-132.5 -50t-132 50t-50 132z M866 1642q0 82 50.5 133.5t132.5 51.5q81 0 131.5 -51.5t50.5 -133.5t-50 -132t-132 -50t-132.5 50t-50.5 132z" />
<glyph unicode="&#xdd;" horiz-adv-x="1298" d="M-39 1376h406l282 -512l283 512h405l-499 -844v-532h-377v532zM449 1618l409 287l156 -226l-430 -256z" />
<glyph unicode="&#xde;" horiz-adv-x="1304" d="M141 0v1376h361v-196h248q226 0 370 -133t144 -342t-144 -342.5t-370 -133.5h-248v-229h-361zM502 514h188q92 0 149.5 53.5t57.5 137.5q0 82 -57.5 136t-149.5 54h-188v-381z" />
<glyph unicode="&#xdf;" horiz-adv-x="1331" d="M106 0v1053q0 183 141.5 298t368.5 115q207 0 342.5 -106t135.5 -270q0 -62 -21.5 -116.5t-47.5 -86.5t-47.5 -68.5t-21.5 -66.5q0 -29 18.5 -52t48 -41t65.5 -37.5t72 -45.5t65.5 -59.5t48 -86.5t18.5 -119q0 -151 -115.5 -243.5t-299.5 -92.5q-175 0 -351 74l90 256 q130 -59 232 -59q46 0 73 17t27 48q0 26 -26 49t-65 39.5t-85 44t-85 60t-65 89.5t-26 130q0 56 21.5 107.5t47 84.5t47 76t21.5 84q0 53 -36 87t-95 34q-65 0 -107 -44.5t-42 -113.5v-1038h-347z" />
<glyph unicode="&#xe0;" horiz-adv-x="1171" d="M55 305q0 162 124.5 252t346.5 90q80 0 174 -16v8q0 59 -50 97t-126 38q-146 0 -327 -74l-91 248q242 90 463 90q209 0 335 -112t126 -295v-334q0 -23 14 -37t37 -14q19 0 47 4l23 -258q-87 -17 -170 -17q-75 0 -133 30.5t-92 86.5q-69 -56 -156 -86.5t-172 -30.5 q-164 0 -268.5 92t-104.5 238zM233 1317l158 225l410 -287l-135 -194zM393 328q0 -45 37 -75t94 -30q76 0 126 48t50 122v37q-72 14 -129 14q-80 0 -129 -31.5t-49 -84.5z" />
<glyph unicode="&#xe1;" horiz-adv-x="1171" d="M55 305q0 162 124.5 252t346.5 90q80 0 174 -16v8q0 59 -50 97t-126 38q-146 0 -327 -74l-91 248q242 90 463 90q209 0 335 -112t126 -295v-334q0 -23 14 -37t37 -14q19 0 47 4l23 -258q-87 -17 -170 -17q-75 0 -133 30.5t-92 86.5q-69 -56 -156 -86.5t-172 -30.5 q-164 0 -268.5 92t-104.5 238zM369 1255l409 287l156 -225l-430 -256zM393 328q0 -45 37 -75t94 -30q76 0 126 48t50 122v37q-72 14 -129 14q-80 0 -129 -31.5t-49 -84.5z" />
<glyph unicode="&#xe2;" horiz-adv-x="1171" d="M55 305q0 162 124.5 252t346.5 90q80 0 174 -16v8q0 59 -50 97t-126 38q-146 0 -327 -74l-91 248q242 90 463 90q209 0 335 -112t126 -295v-334q0 -23 14 -37t37 -14q19 0 47 4l23 -258q-87 -17 -170 -17q-75 0 -133 30.5t-92 86.5q-69 -56 -156 -86.5t-172 -30.5 q-164 0 -268.5 92t-104.5 238zM203 1227l260 246h213l260 -246l-152 -166l-215 170l-215 -170zM393 328q0 -45 37 -75t94 -30q76 0 126 48t50 122v37q-72 14 -129 14q-80 0 -129 -31.5t-49 -84.5z" />
<glyph unicode="&#xe3;" horiz-adv-x="1171" d="M55 305q0 162 124.5 252t346.5 90q80 0 174 -16v8q0 59 -50 97t-126 38q-146 0 -327 -74l-91 248q242 90 463 90q209 0 335 -112t126 -295v-334q0 -23 14 -37t37 -14q19 0 47 4l23 -258q-87 -17 -170 -17q-75 0 -133 30.5t-92 86.5q-69 -56 -156 -86.5t-172 -30.5 q-164 0 -268.5 92t-104.5 238zM188 1188q15 113 83 180.5t167 67.5q49 0 96 -17t81.5 -34t54.5 -17q47 0 69 68l211 -62q-15 -113 -83 -180.5t-167 -67.5q-49 0 -95.5 17t-81 34t-54.5 17q-54 0 -70 -68zM393 328q0 -45 37 -75t94 -30q76 0 126 48t50 122v37q-72 14 -129 14 q-80 0 -129 -31.5t-49 -84.5z" />
<glyph unicode="&#xe4;" horiz-adv-x="1171" d="M55 305q0 162 124.5 252t346.5 90q80 0 174 -16v8q0 59 -50 97t-126 38q-146 0 -327 -74l-91 248q242 90 463 90q209 0 335 -112t126 -295v-334q0 -23 14 -37t37 -14q19 0 47 4l23 -258q-87 -17 -170 -17q-75 0 -133 30.5t-92 86.5q-69 -56 -156 -86.5t-172 -30.5 q-164 0 -268.5 92t-104.5 238zM145 1280q0 82 50.5 133t132.5 51t132 -51t50 -133t-50 -132t-132 -50t-132.5 50t-50.5 132zM393 328q0 -45 37 -75t94 -30q76 0 126 48t50 122v37q-72 14 -129 14q-80 0 -129 -31.5t-49 -84.5zM629 1280q0 82 50 133t132 51t132 -51t50 -133 t-50 -132t-132 -50t-132 50t-50 132z" />
<glyph unicode="&#xe5;" horiz-adv-x="1171" d="M55 305q0 162 124.5 252t346.5 90q80 0 174 -16v8q0 59 -50 97t-126 38q-146 0 -327 -74l-91 248q242 90 463 90q209 0 335 -112t126 -295v-334q0 -23 14 -37t37 -14q19 0 47 4l23 -258q-87 -17 -170 -17q-75 0 -133 30.5t-92 86.5q-69 -56 -156 -86.5t-172 -30.5 q-164 0 -268.5 92t-104.5 238zM330 1280q0 100 66.5 162.5t172.5 62.5t173 -62.5t67 -162.5q0 -98 -67 -160.5t-173 -62.5t-172.5 62.5t-66.5 160.5zM393 328q0 -45 37 -75t94 -30q76 0 126 48t50 122v37q-72 14 -129 14q-80 0 -129 -31.5t-49 -84.5zM496 1280 q0 -32 20.5 -52t52.5 -20t53 20t21 52q0 33 -20.5 53.5t-53.5 20.5t-53 -20t-20 -54z" />
<glyph unicode="&#xe6;" horiz-adv-x="1769" d="M55 299q0 164 124.5 256t346.5 92q80 0 174 -16v8q0 59 -49 97t-127 38q-146 0 -327 -74l-91 248q242 90 463 90q97 0 182 -29.5t132 -80.5q137 110 334 110q227 0 370.5 -143.5t143.5 -372.5q0 -47 -7 -108h-694q20 -80 91.5 -127t172.5 -47q123 0 281 82l106 -242 q-209 -105 -424 -105q-244 0 -421 142q-164 -142 -379 -142q-177 0 -289.5 90.5t-112.5 233.5zM393 328q0 -45 37 -75t94 -30q76 0 126 48t50 122v37q-72 14 -129 14q-80 0 -129 -31.5t-49 -84.5zM1030 625h354q-8 68 -53 108.5t-114 40.5q-70 0 -121 -40.5t-66 -108.5z" />
<glyph unicode="&#xe7;" horiz-adv-x="1042" d="M55 506q0 233 158 382.5t405 149.5q219 0 416 -123l-143 -239q-126 76 -221 76q-109 0 -177.5 -68.5t-68.5 -177.5t68.5 -176.5t177.5 -67.5q95 0 221 76l143 -242q-149 -91 -315 -112l-6 -50q66 -20 103.5 -73t37.5 -125q0 -100 -86 -161.5t-227 -61.5q-117 0 -224 41 l58 196q83 -26 129 -26q29 0 47 13.5t18 35.5q0 20 -24.5 33.5t-63.5 13.5h-30l30 170q-194 37 -310 177t-116 339z" />
<glyph unicode="&#xe8;" horiz-adv-x="1155" d="M55 506q0 235 153 383.5t394 148.5q227 0 370.5 -143.5t143.5 -372.5q0 -56 -6 -108h-694q20 -80 91.5 -127t172.5 -47q123 0 281 82l106 -242q-225 -105 -432 -105q-257 0 -418.5 148.5t-161.5 382.5zM266 1317l158 225l410 -287l-136 -194zM416 625h354 q-9 68 -55 108.5t-113 40.5q-70 0 -120.5 -40.5t-65.5 -108.5z" />
<glyph unicode="&#xe9;" horiz-adv-x="1155" d="M55 506q0 235 153 383.5t394 148.5q227 0 370.5 -143.5t143.5 -372.5q0 -56 -6 -108h-694q20 -80 91.5 -127t172.5 -47q123 0 281 82l106 -242q-225 -105 -432 -105q-257 0 -418.5 148.5t-161.5 382.5zM401 1255l410 287l156 -225l-430 -256zM416 625h354 q-9 68 -55 108.5t-113 40.5q-70 0 -120.5 -40.5t-65.5 -108.5z" />
<glyph unicode="&#xea;" horiz-adv-x="1155" d="M55 506q0 235 153 383.5t394 148.5q227 0 370.5 -143.5t143.5 -372.5q0 -56 -6 -108h-694q20 -80 91.5 -127t172.5 -47q123 0 281 82l106 -242q-225 -105 -432 -105q-257 0 -418.5 148.5t-161.5 382.5zM236 1227l260 246h213l260 -246l-152 -166l-215 170l-215 -170z M416 625h354q-9 68 -55 108.5t-113 40.5q-70 0 -120.5 -40.5t-65.5 -108.5z" />
<glyph unicode="&#xeb;" horiz-adv-x="1155" d="M55 506q0 235 153 383.5t394 148.5q227 0 370.5 -143.5t143.5 -372.5q0 -56 -6 -108h-694q20 -80 91.5 -127t172.5 -47q123 0 281 82l106 -242q-225 -105 -432 -105q-257 0 -418.5 148.5t-161.5 382.5zM178 1280q0 82 50 133t132 51t132.5 -51t50.5 -133t-50.5 -132 t-132.5 -50t-132 50t-50 132zM416 625h354q-9 68 -55 108.5t-113 40.5q-70 0 -120.5 -40.5t-65.5 -108.5zM662 1280q0 82 50 133t132 51t132 -51t50 -133t-50 -132t-132 -50t-132 50t-50 132z" />
<glyph unicode="&#xec;" horiz-adv-x="575" d="M-49 1317l158 225l409 -287l-135 -194zM106 0v1014h361v-1014h-361z" />
<glyph unicode="&#xed;" horiz-adv-x="575" d="M86 1255l410 287l155 -225l-430 -256zM106 0v1014h361v-1014h-361z" />
<glyph unicode="&#xee;" horiz-adv-x="575" d="M-80 1227l260 246h213l260 -246l-151 -166l-215 170l-215 -170zM106 0v1014h361v-1014h-361z" />
<glyph unicode="&#xef;" horiz-adv-x="575" d="M-137 1280q0 82 50 133t132 51t132 -51t50 -133t-50 -132t-132 -50t-132 50t-50 132zM106 0v1014h361v-1014h-361zM346 1280q0 82 50 133t132 51t132.5 -51t50.5 -133t-50.5 -132t-132.5 -50t-132 50t-50 132z" />
<glyph unicode="&#xf0;" horiz-adv-x="1265" d="M55 500q0 222 140 357.5t362 135.5q102 0 199 -47q-44 103 -148 178l-252 -125l-92 183l111 53q-37 15 -78 27l76 241q176 -37 321 -108l215 108l92 -182l-108 -55q144 -123 222 -286.5t79 -354.5q0 -64 -10 -136q-37 -232 -195 -373t-387 -141q-239 0 -393 147.5 t-154 377.5zM408 483q0 -107 58 -175t150 -68q93 0 152 68.5t59 178.5q0 107 -59 174.5t-152 67.5q-92 0 -150 -68.5t-58 -177.5z" />
<glyph unicode="&#xf1;" horiz-adv-x="1265" d="M106 0v1014h287l45 -111q126 135 332 135q180 0 293 -111t113 -286v-641h-361v582q0 70 -45.5 115.5t-114.5 45.5q-83 0 -135.5 -55.5t-52.5 -144.5v-543h-361zM252 1188q15 113 83 180.5t167 67.5q49 0 95.5 -17t81 -34t54.5 -17q48 0 70 68l211 -62 q-15 -113 -83 -180.5t-167 -67.5q-49 0 -96 17t-81.5 34t-54.5 17q-53 0 -69 -68z" />
<glyph unicode="&#xf2;" horiz-adv-x="1265" d="M55 506q0 234 162 383t416 149q255 0 416 -148.5t161 -383.5q0 -234 -161 -382.5t-416 -148.5q-254 0 -416 149t-162 382zM297 1317l158 225l409 -287l-135 -194zM424 506q0 -110 58.5 -181t150.5 -71t151.5 71t59.5 181q0 112 -59 183t-152 71q-92 0 -150.5 -71 t-58.5 -183z" />
<glyph unicode="&#xf3;" horiz-adv-x="1265" d="M55 506q0 234 162 383t416 149q255 0 416 -148.5t161 -383.5q0 -234 -161 -382.5t-416 -148.5q-254 0 -416 149t-162 382zM424 506q0 -110 58.5 -181t150.5 -71t151.5 71t59.5 181q0 112 -59 183t-152 71q-92 0 -150.5 -71t-58.5 -183zM432 1255l410 287l155 -225 l-430 -256z" />
<glyph unicode="&#xf4;" horiz-adv-x="1265" d="M55 506q0 234 162 383t416 149q255 0 416 -148.5t161 -383.5q0 -234 -161 -382.5t-416 -148.5q-254 0 -416 149t-162 382zM266 1227l260 246h213l260 -246l-151 -166l-215 170l-215 -170zM424 506q0 -110 58.5 -181t150.5 -71t151.5 71t59.5 181q0 112 -59 183t-152 71 q-92 0 -150.5 -71t-58.5 -183z" />
<glyph unicode="&#xf5;" horiz-adv-x="1265" d="M55 506q0 234 162 383t416 149q255 0 416 -148.5t161 -383.5q0 -234 -161 -382.5t-416 -148.5q-254 0 -416 149t-162 382zM252 1188q15 113 83 180.5t167 67.5q49 0 95.5 -17t81 -34t54.5 -17q48 0 70 68l211 -62q-15 -113 -83 -180.5t-167 -67.5q-49 0 -96 17t-81.5 34 t-54.5 17q-53 0 -69 -68zM424 506q0 -110 58.5 -181t150.5 -71t151.5 71t59.5 181q0 112 -59 183t-152 71q-92 0 -150.5 -71t-58.5 -183z" />
<glyph unicode="&#xf6;" horiz-adv-x="1265" d="M55 506q0 234 162 383t416 149q255 0 416 -148.5t161 -383.5q0 -234 -161 -382.5t-416 -148.5q-254 0 -416 149t-162 382zM209 1280q0 82 50 133t132 51t132 -51t50 -133t-50 -132t-132 -50t-132 50t-50 132zM424 506q0 -110 58.5 -181t150.5 -71t151.5 71t59.5 181 q0 112 -59 183t-152 71q-92 0 -150.5 -71t-58.5 -183zM692 1280q0 82 50 133t132 51t132.5 -51t50.5 -133t-50.5 -132t-132.5 -50t-132 50t-50 132z" />
<glyph unicode="&#xf7;" d="M72 455v270h1036v-270h-1036zM408 197q0 79 51 130.5t131 51.5t131 -51.5t51 -130.5q0 -80 -51.5 -131.5t-130.5 -51.5t-130.5 51.5t-51.5 131.5zM408 983q0 79 51 130.5t131 51.5q81 0 131.5 -48.5t50.5 -133.5q0 -79 -51 -130.5t-131 -51.5t-131 51.5t-51 130.5z" />
<glyph unicode="&#xf8;" horiz-adv-x="1265" d="M55 506q0 234 162 383t416 149q128 0 248 -47l86 115l147 -111l-76 -100q172 -148 172 -389q0 -234 -161 -382.5t-416 -148.5q-137 0 -248 48l-86 -115l-147 110l73 97q-170 147 -170 391zM393 506q0 -69 29 -129l287 383q-44 14 -76 14q-105 0 -172.5 -75t-67.5 -193z M559 254q28 -14 74 -14q105 0 172 74t67 192q0 71 -28 129z" />
<glyph unicode="&#xf9;" horiz-adv-x="1265" d="M90 373v641h361v-582q0 -72 45 -118t116 -46q82 0 134.5 56t52.5 145v545h360v-1014h-287l-45 111q-124 -136 -331 -136q-179 0 -292.5 110.5t-113.5 287.5zM297 1317l158 225l409 -287l-135 -194z" />
<glyph unicode="&#xfa;" horiz-adv-x="1265" d="M90 373v641h361v-582q0 -72 45 -118t116 -46q82 0 134.5 56t52.5 145v545h360v-1014h-287l-45 111q-124 -136 -331 -136q-179 0 -292.5 110.5t-113.5 287.5zM432 1255l410 287l155 -225l-430 -256z" />
<glyph unicode="&#xfb;" horiz-adv-x="1265" d="M90 373v641h361v-582q0 -72 45 -118t116 -46q82 0 134.5 56t52.5 145v545h360v-1014h-287l-45 111q-124 -136 -331 -136q-179 0 -292.5 110.5t-113.5 287.5zM266 1227l260 246h213l260 -246l-151 -166l-215 170l-215 -170z" />
<glyph unicode="&#xfc;" horiz-adv-x="1265" d="M90 373v641h361v-582q0 -72 45 -118t116 -46q82 0 134.5 56t52.5 145v545h360v-1014h-287l-45 111q-124 -136 -331 -136q-179 0 -292.5 110.5t-113.5 287.5zM209 1280q0 82 50 133t132 51t132 -51t50 -133t-50 -132t-132 -50t-132 50t-50 132zM692 1280q0 82 50 133 t132 51t132.5 -51t50.5 -133t-50.5 -132t-132.5 -50t-132 50t-50 132z" />
<glyph unicode="&#xfd;" horiz-adv-x="1134" d="M-8 1014h377l198 -608l199 608h377l-432 -1092q-144 -373 -457 -373q-80 0 -174 21l45 278q53 -12 92 -12q60 0 100 31.5t68 101.5l18 45zM367 1255l409 287l156 -225l-430 -256z" />
<glyph unicode="&#xfe;" horiz-adv-x="1265" d="M106 -426v1868h361v-500q116 96 272 96q207 0 339 -148.5t132 -383.5q0 -233 -132 -382t-339 -149q-154 0 -272 97v-498h-361zM461 453q0 -85 50.5 -140t131.5 -55q88 0 144.5 69.5t56.5 178.5q0 110 -56.5 180t-144.5 70q-81 0 -131.5 -55t-50.5 -142v-106z" />
<glyph unicode="&#xff;" horiz-adv-x="1134" d="M-8 1014h377l198 -608l199 608h377l-432 -1092q-144 -373 -457 -373q-80 0 -174 21l45 278q53 -12 92 -12q60 0 100 31.5t68 101.5l18 45zM143 1280q0 82 50.5 133t132.5 51t132 -51t50 -133t-50 -132t-132 -50t-132.5 50t-50.5 132zM627 1280q0 82 50 133t132 51 t132 -51t50 -133t-50 -132t-132 -50t-132 50t-50 132z" />
<glyph unicode="&#x152;" horiz-adv-x="2064" d="M57 688q0 305 194.5 496.5t508.5 191.5h1200v-278h-621v-258h555v-271h-555v-290h654v-279h-1233q-156 0 -287 50t-222.5 140t-142.5 218t-51 280zM440 688q0 -177 102.5 -289t262.5 -112h160v803h-160q-160 0 -262.5 -112.5t-102.5 -289.5z" />
<glyph unicode="&#x153;" horiz-adv-x="1949" d="M55 506q0 234 162 383t416 149q114 0 216 -37.5t177 -103.5q167 141 371 141q227 0 370.5 -144.5t143.5 -371.5q0 -56 -6 -108h-695q20 -80 92 -127t173 -47q122 0 280 82l107 -242q-225 -105 -432 -105q-237 0 -400 150q-163 -150 -397 -150q-254 0 -416 149t-162 382z M424 506q0 -110 58.5 -181t150.5 -71t151.5 71t59.5 181q0 112 -59 183t-152 71q-92 0 -150.5 -71t-58.5 -183zM1210 625h355q-8 68 -53.5 108.5t-114.5 40.5q-70 0 -121 -40.5t-66 -108.5z" />
<glyph unicode="&#x178;" horiz-adv-x="1298" d="M-39 1376h406l282 -512l283 512h405l-499 -844v-532h-377v532zM225 1642q0 82 50.5 133.5t132.5 51.5q81 0 131.5 -51.5t50.5 -133.5t-50 -132t-132 -50t-132.5 50t-50.5 132zM709 1642q0 82 50.5 133.5t131.5 51.5t131.5 -51.5t50.5 -133.5t-50 -132t-132 -50t-132 50 t-50 132z" />
<glyph unicode="&#x2c6;" horiz-adv-x="491" d="M-121 1227l260 246h213l260 -246l-151 -166l-215 170l-215 -170z" />
<glyph unicode="&#x2dc;" horiz-adv-x="491" d="M-135 1188q15 113 83 180.5t167 67.5q49 0 95.5 -17t81 -34t54.5 -17q48 0 70 68l211 -62q-15 -113 -83 -180.5t-167 -67.5q-49 0 -96 17t-81.5 34t-54.5 17q-53 0 -69 -68z" />
<glyph unicode="&#x2000;" horiz-adv-x="952" />
<glyph unicode="&#x2001;" horiz-adv-x="1905" />
<glyph unicode="&#x2002;" horiz-adv-x="952" />
<glyph unicode="&#x2003;" horiz-adv-x="1905" />
<glyph unicode="&#x2004;" horiz-adv-x="635" />
<glyph unicode="&#x2005;" horiz-adv-x="476" />
<glyph unicode="&#x2006;" horiz-adv-x="317" />
<glyph unicode="&#x2007;" horiz-adv-x="317" />
<glyph unicode="&#x2008;" horiz-adv-x="238" />
<glyph unicode="&#x2009;" horiz-adv-x="381" />
<glyph unicode="&#x200a;" horiz-adv-x="105" />
<glyph unicode="&#x2010;" horiz-adv-x="655" d="M35 383v270h586v-270h-586z" />
<glyph unicode="&#x2011;" horiz-adv-x="655" d="M35 383v270h586v-270h-586z" />
<glyph unicode="&#x2012;" horiz-adv-x="655" d="M35 383v270h586v-270h-586z" />
<glyph unicode="&#x2013;" horiz-adv-x="983" d="M35 383v270h913v-270h-913z" />
<glyph unicode="&#x2014;" horiz-adv-x="1966" d="M35 383v270h1896v-270h-1896z" />
<glyph unicode="&#x2018;" horiz-adv-x="577" d="M76 940q0 142 78 268.5t221 214.5l104 -137q-101 -84 -147 -182q77 -12 123.5 -66.5t46.5 -132.5q0 -91 -60 -152t-153 -61q-95 0 -154 69.5t-59 178.5z" />
<glyph unicode="&#x2019;" horiz-adv-x="577" d="M76 1194q0 93 60 153t153 60q95 0 155 -68.5t60 -177.5q0 -142 -79 -269.5t-220 -213.5l-107 137q105 88 148 182q-76 10 -123 65t-47 132z" />
<glyph unicode="&#x201a;" horiz-adv-x="512" d="M76 188q0 93 60 153t153 60q95 0 155 -68t60 -177q0 -142 -79 -270t-220 -214l-107 138q105 88 148 182q-76 10 -123 64.5t-47 131.5z" />
<glyph unicode="&#x201c;" horiz-adv-x="1083" d="M76 940q0 142 78 268.5t221 214.5l104 -137q-101 -84 -147 -182q77 -12 123.5 -66.5t46.5 -132.5q0 -91 -60 -152t-153 -61q-95 0 -154 69.5t-59 178.5zM584 940q0 142 78 268.5t221 214.5l104 -137q-101 -84 -147 -182q77 -12 123.5 -66.5t46.5 -132.5q0 -91 -60 -152 t-153 -61q-95 0 -154 69.5t-59 178.5z" />
<glyph unicode="&#x201d;" horiz-adv-x="1083" d="M76 1194q0 93 60 153t153 60q95 0 155 -68.5t60 -177.5q0 -142 -79 -269.5t-220 -213.5l-107 137q105 88 148 182q-76 10 -123 65t-47 132zM582 1194q0 93 60 153t153 60q95 0 155 -68.5t60 -177.5q0 -142 -79 -269.5t-220 -213.5l-107 137q105 88 148 182 q-76 10 -123 65t-47 132z" />
<glyph unicode="&#x201e;" horiz-adv-x="1083" d="M76 188q0 93 60 153t153 60q95 0 155 -68t60 -177q0 -142 -79 -270t-220 -214l-107 138q105 88 148 182q-76 10 -123 64.5t-47 131.5zM582 188q0 93 60 153t153 60q95 0 155 -68t60 -177q0 -142 -79 -270t-220 -214l-107 138q105 88 148 182q-76 10 -123 64.5t-47 131.5z " />
<glyph unicode="&#x2022;" horiz-adv-x="983" d="M197 590q0 123 86 209t209 86t208.5 -86t85.5 -209t-85.5 -209t-208.5 -86t-209 86t-86 209z" />
<glyph unicode="&#x2026;" horiz-adv-x="1966" d="M115 188q0 93 60 153t153 60t153 -60t60 -153q0 -92 -60.5 -152.5t-152.5 -60.5t-152.5 60.5t-60.5 152.5zM770 188q0 93 60 153t153 60t153 -60t60 -153q0 -92 -60.5 -152.5t-152.5 -60.5t-152.5 60.5t-60.5 152.5zM1425 188q0 93 60 153t153 60t153 -60t60 -153 q0 -92 -60.5 -152.5t-152.5 -60.5t-152.5 60.5t-60.5 152.5z" />
<glyph unicode="&#x202f;" horiz-adv-x="381" />
<glyph unicode="&#x2039;" horiz-adv-x="708" d="M51 442v152l408 459l211 -166l-273 -369l273 -366l-211 -166z" />
<glyph unicode="&#x203a;" horiz-adv-x="708" d="M39 152l274 366l-274 369l211 166l407 -459v-152l-407 -456z" />
<glyph unicode="&#x205f;" horiz-adv-x="476" />
<glyph unicode="&#x20ac;" d="M51 451v213h107q-2 8 -2 24q0 39 2 57h-107v213h148q68 208 223 325.5t364 117.5q220 0 402 -105l-127 -241q-112 67 -230 67q-88 0 -159.5 -45t-104.5 -119h391v-213h-454q-2 -18 -2 -57v-24h456v-213h-407q34 -91 108 -144t172 -53q116 0 230 68l127 -242 q-182 -105 -402 -105q-215 0 -374.5 126.5t-225.5 349.5h-135z" />
<glyph unicode="&#x2122;" horiz-adv-x="1972" d="M39 1171v205h735v-205h-231v-647h-273v647h-231zM911 524v852h260l222 -311l221 311h260v-852h-246v490l-160 -232h-151l-166 232v-490h-240z" />
<glyph unicode="&#xe000;" horiz-adv-x="1013" d="M0 0v1014h1014v-1014h-1014z" />
</font>
</defs>
</svg>
